<svg width="70" height="70" viewBox="0 0 70 70" fill="none" xmlns="http://www.w3.org/2000/svg">
<g clip-path="url(#clip0_4570_14258)">
<path d="M34.9999 44.8435C32.0169 44.8435 29.0835 44.0809 26.4781 42.6283C23.8727 41.1757 21.6818 39.0812 20.1135 36.5437C18.5453 34.0063 17.6517 31.11 17.5176 28.13C17.3835 25.1501 18.0134 22.1853 19.3475 19.5172C20.6815 16.8491 22.6754 14.5664 25.1398 12.8856C27.6043 11.2049 30.4574 10.1821 33.4283 9.91416C36.3993 9.64627 39.3894 10.1423 42.1147 11.355C44.8401 12.5678 47.2101 14.4571 48.9999 16.8434C49.174 17.0755 49.2487 17.3672 49.2077 17.6544C49.1667 17.9415 49.0133 18.2007 48.7812 18.3747C48.5491 18.5487 48.2574 18.6235 47.9703 18.5825C47.6831 18.5414 47.424 18.388 47.2499 18.156C44.9067 15.0511 41.4653 12.9592 37.6303 12.3086C33.7952 11.6579 29.8565 12.4977 26.6203 14.6559C23.3841 16.8142 21.0952 20.1278 20.2221 23.9184C19.349 27.709 19.9577 31.69 21.9237 35.0465C23.8896 38.403 27.0641 40.8811 30.7974 41.9737C34.5307 43.0663 38.5403 42.6907 42.0057 40.9238C45.4711 39.1568 48.1301 36.1322 49.4385 32.4689C50.7469 28.8057 50.6056 24.7809 49.0437 21.2184C48.9771 21.0857 48.9383 20.9408 48.9295 20.7926C48.9208 20.6444 48.9423 20.4959 48.9928 20.3563C49.0433 20.2166 49.1217 20.0887 49.2232 19.9804C49.3247 19.872 49.4472 19.7855 49.5833 19.726C49.7193 19.6665 49.8661 19.6354 50.0146 19.6344C50.163 19.6335 50.3102 19.6628 50.4469 19.7206C50.5837 19.7784 50.7073 19.8634 50.8102 19.9705C50.913 20.0775 50.993 20.2045 51.0452 20.3435C52.2078 23.0071 52.6886 25.9184 52.4443 28.8144C52.2 31.7104 51.2383 34.4999 49.6461 36.9312C48.0538 39.3625 45.8811 41.359 43.324 42.7403C40.767 44.1217 37.9062 44.8445 34.9999 44.8435ZM40.0531 35.4372C40.2228 35.3156 40.3541 35.1481 40.4316 34.9543C40.5092 34.7604 40.5296 34.5485 40.4906 34.3434L39.7468 29.9684L42.8968 26.895C43.0443 26.753 43.1489 26.5726 43.1989 26.3741C43.2488 26.1756 43.2421 25.9671 43.1794 25.7722C43.1167 25.5774 43.0007 25.404 42.8444 25.2719C42.6881 25.1397 42.4978 25.0541 42.2952 25.0247L37.9202 24.3903L35.9843 20.5075C35.8936 20.3255 35.7539 20.1724 35.581 20.0654C35.4081 19.9583 35.2088 19.9016 35.0054 19.9016C34.802 19.9016 34.6027 19.9583 34.4298 20.0654C34.2569 20.1724 34.1172 20.3255 34.0265 20.5075L32.0796 24.4559L27.7046 25.0903C27.5021 25.1197 27.3118 25.2054 27.1555 25.3375C26.9992 25.4696 26.8831 25.643 26.8205 25.8378C26.7578 26.0327 26.7511 26.2412 26.801 26.4397C26.851 26.6382 26.9556 26.8187 27.1031 26.9606L30.2531 30.0341L29.5093 34.4091C29.476 34.6097 29.4992 34.8157 29.5765 35.0039C29.6538 35.192 29.782 35.3549 29.9468 35.4742C30.1115 35.5935 30.3063 35.6645 30.5092 35.6792C30.712 35.694 30.915 35.6518 31.0953 35.5575L34.9999 33.4684L38.8937 35.5138C39.0743 35.6074 39.2775 35.6489 39.4804 35.6334C39.6832 35.618 39.8778 35.5462 40.0421 35.4263L40.0531 35.4372ZM34.4968 31.27L32.0468 32.5497L32.5171 29.8263C32.5458 29.6521 32.532 29.4737 32.4767 29.3061C32.4215 29.1385 32.3265 28.9867 32.1999 28.8638L30.2203 26.9388L32.9546 26.545C33.1299 26.5187 33.2961 26.4502 33.439 26.3454C33.5819 26.2406 33.6972 26.1027 33.7749 25.9434L34.9999 23.4606L36.2249 25.9325C36.3027 26.0917 36.418 26.2297 36.5609 26.3345C36.7038 26.4393 36.87 26.5078 37.0452 26.5341L39.7796 26.9278L37.7999 28.8528C37.6733 28.9758 37.5784 29.1275 37.5231 29.2951C37.4679 29.4627 37.4541 29.6412 37.4828 29.8153L37.9531 32.5388L35.514 31.2591C35.3571 31.1767 35.1826 31.1336 35.0054 31.1336C34.8282 31.1336 34.6537 31.1767 34.4968 31.2591V31.27ZM40.5671 51.7122C41.7609 51.3077 42.8001 50.5436 43.5421 49.5247C43.9644 48.99 44.4748 48.5313 45.0515 48.1685C45.7082 47.9355 46.4 47.8171 47.0968 47.8185C48.3318 47.8566 49.549 47.517 50.5859 46.845C51.4737 45.9813 52.0767 44.867 52.314 43.6513C52.4656 42.9765 52.7319 42.3327 53.1015 41.7481C53.5877 41.2616 54.1537 40.8621 54.7749 40.5669C55.9145 40.0643 56.8726 39.2245 57.5203 38.1606C57.9428 37.0068 58.0038 35.7516 57.6953 34.5622C57.5393 33.8773 57.5023 33.1706 57.5859 32.4731C57.809 31.8389 58.1381 31.2472 58.5593 30.7231C59.3667 29.7678 59.8628 28.5886 59.9812 27.3434C59.8609 26.0882 59.3568 24.9004 58.5374 23.9419C58.1161 23.418 57.7869 22.8262 57.564 22.1919C57.4806 21.4944 57.5176 20.7878 57.6734 20.1028C57.9826 18.9135 57.9216 17.6581 57.4984 16.5044C56.8513 15.4401 55.893 14.6001 54.7531 14.0981C54.1318 13.803 53.5658 13.4034 53.0796 12.9169C52.7103 12.3322 52.4439 11.6885 52.2921 11.0138C52.0541 9.79826 51.4513 8.68417 50.564 7.82001C49.5272 7.14801 48.3099 6.8084 47.0749 6.84658C46.3782 6.84795 45.6863 6.72956 45.0296 6.49658C44.4561 6.12929 43.9494 5.66694 43.5312 5.12939C42.7892 4.11052 41.7499 3.34636 40.5562 2.94189C39.345 2.79048 38.1165 3.01177 37.0343 3.57626C36.3974 3.90034 35.7091 4.11129 34.9999 4.1997C34.2935 4.12505 33.6053 3.92894 32.9656 3.62001C31.8831 3.05619 30.6548 2.83494 29.4437 2.98564C28.2499 3.39011 27.2107 4.15427 26.4687 5.17314C26.0465 5.70787 25.536 6.16655 24.9593 6.52939C24.3026 6.76237 23.6108 6.88076 22.914 6.87939C21.679 6.84122 20.4618 7.18082 19.4249 7.85282C18.5371 8.71656 17.9341 9.83084 17.6968 11.0466C17.5453 11.7214 17.2789 12.3651 16.9093 12.9497C16.4231 13.4362 15.8571 13.8358 15.2359 14.131C14.0963 14.6336 13.1382 15.4734 12.4906 16.5372C12.3737 16.7814 12.2856 17.0383 12.2281 17.3028C12.1657 17.5929 12.2211 17.8959 12.3821 18.1451C12.5432 18.3943 12.7966 18.5694 13.0867 18.6317C13.3767 18.6941 13.6797 18.6387 13.9289 18.4777C14.1781 18.3166 14.3532 18.0632 14.4156 17.7731C14.4375 17.6749 14.4705 17.5795 14.514 17.4888C14.9909 16.8491 15.6286 16.3472 16.3624 16.0341C17.2107 15.5933 17.9678 14.9958 18.5937 14.2731C19.1473 13.4766 19.5444 12.5821 19.764 11.6372C19.911 10.8562 20.2619 10.1279 20.7812 9.52626C21.4821 9.16153 22.2668 8.98799 23.0562 9.02314C24.031 9.01993 24.9962 8.8306 25.8999 8.46532C26.7404 7.99445 27.4829 7.36701 28.0874 6.61689C28.56 5.96521 29.1982 5.45166 29.9359 5.12939C30.6989 5.11807 31.452 5.30259 32.1234 5.66532C33.0159 6.08874 33.9811 6.33749 34.9671 6.39814C35.9531 6.33722 36.9183 6.08849 37.8109 5.66532C38.4822 5.30259 39.2354 5.11807 39.9984 5.12939C40.7575 5.4247 41.4226 5.91977 41.9234 6.5622C42.5277 7.31251 43.2703 7.93998 44.1109 8.41064C45.0139 8.77966 45.9791 8.9727 46.9546 8.97939C47.7442 8.96012 48.525 9.14871 49.2187 9.52626C49.7318 10.1334 50.0752 10.8654 50.214 11.6481C50.4403 12.5946 50.8449 13.4892 51.4062 14.2841C52.059 14.9983 52.8423 15.5812 53.714 16.0013C54.4453 16.3294 55.0758 16.8467 55.5406 17.4997C55.7438 18.2593 55.7438 19.0589 55.5406 19.8185C55.3256 20.7737 55.2959 21.7614 55.4531 22.7278C55.7258 23.6425 56.1714 24.4965 56.7656 25.2434C57.3239 25.8585 57.7023 26.6153 57.8593 27.4309C57.7023 28.2466 57.3239 29.0034 56.7656 29.6184C56.1716 30.3656 55.7261 31.2195 55.4531 32.1341C55.2959 33.1005 55.3256 34.0882 55.5406 35.0435C55.7433 35.8031 55.7433 36.6026 55.5406 37.3622C55.0637 38.0018 54.4259 38.5037 53.6921 38.8169C52.8378 39.203 52.0627 39.7445 51.4062 40.4138C50.8526 41.2103 50.4555 42.1049 50.2359 43.0497C50.0889 43.8307 49.738 44.559 49.2187 45.1606C48.5178 45.5254 47.7331 45.6989 46.9437 45.6638C45.9689 45.667 45.0037 45.8563 44.0999 46.2216C43.2595 46.6925 42.5169 47.3199 41.9124 48.07C41.4398 48.7217 40.8017 49.2352 40.064 49.5575C39.301 49.5693 38.5477 49.3848 37.8765 49.0216C36.984 48.5982 36.0187 48.3494 35.0327 48.2888C34.0468 48.3497 33.0816 48.5984 32.189 49.0216C31.5178 49.3848 30.7646 49.5693 30.0015 49.5575C29.2424 49.2622 28.5773 48.7671 28.0765 48.1247C27.4722 47.3744 26.7296 46.7469 25.889 46.2763C24.986 45.9072 24.0207 45.7142 23.0453 45.7075C22.2557 45.7268 21.4749 45.5382 20.7812 45.1606C20.2681 44.5535 19.9247 43.8215 19.7859 43.0388C19.5596 42.0923 19.155 41.1977 18.5937 40.4028C17.9409 39.6886 17.1576 39.1057 16.2859 38.6856C15.5546 38.3575 14.9241 37.8402 14.4593 37.1872C14.256 36.4276 14.256 35.628 14.4593 34.8684C14.6743 33.9132 14.704 32.9255 14.5468 31.9591C14.274 31.0444 13.8285 30.1904 13.2343 29.4434C12.676 28.8284 12.2976 28.0716 12.1406 27.2559C12.2981 26.4404 12.6765 25.6838 13.2343 25.0684L13.5953 24.5434C14.0297 23.9426 14.3521 23.2682 14.5468 22.5528C14.6617 21.8832 14.6617 21.199 14.5468 20.5294C14.5296 20.3858 14.4842 20.2469 14.4133 20.1208C14.3424 19.9947 14.2474 19.8838 14.1337 19.7944C14.0199 19.7051 13.8897 19.639 13.7504 19.5999C13.6111 19.5609 13.4654 19.5497 13.3218 19.5669C13.1782 19.5841 13.0393 19.6295 12.9132 19.7004C12.7871 19.7713 12.6762 19.8663 12.5869 19.98C12.4975 20.0938 12.4314 20.224 12.3923 20.3633C12.3533 20.5026 12.3421 20.6483 12.3593 20.7919C12.4313 21.2154 12.4313 21.6481 12.3593 22.0716C12.22 22.5269 12.0055 22.9557 11.7249 23.3403L11.3859 23.8325C10.5732 24.8305 10.0949 26.0587 10.0187 27.3434C10.139 28.5987 10.6431 29.7865 11.4624 30.745C11.8838 31.2689 12.213 31.8607 12.4359 32.495C12.5193 33.1925 12.4823 33.8991 12.3265 34.5841C12.0173 35.7734 12.0783 37.0288 12.5015 38.1825C13.1486 39.2468 14.1069 40.0868 15.2468 40.5888C15.8681 40.884 16.4341 41.2835 16.9203 41.77C17.2896 42.3547 17.556 42.9984 17.7078 43.6731C17.9457 44.8886 18.5486 46.0027 19.4359 46.8669C20.4727 47.5389 21.69 47.8785 22.9249 47.8403C23.6217 47.839 24.3136 47.9573 24.9703 48.1903C25.5468 48.5533 26.0572 49.012 26.4796 49.5466C27.2216 50.5654 28.2609 51.3296 29.4546 51.7341C30.6657 51.8841 31.8938 51.6629 32.9765 51.0997C33.6107 50.7806 34.2952 50.5734 34.9999 50.4872C35.7064 50.5619 36.3946 50.758 37.0343 51.0669C37.9032 51.4792 38.842 51.7241 39.8015 51.7888C40.0555 51.788 40.3087 51.7586 40.5562 51.7013L40.5671 51.7122ZM17.4999 40.5778L15.1812 66.1059L29.8046 51.4716C29.9838 51.2623 30.0774 50.9932 30.0668 50.7179C30.0562 50.4427 29.9421 50.1815 29.7473 49.9867C29.5525 49.792 29.2914 49.6778 29.0161 49.6672C28.7408 49.6566 28.4717 49.7502 28.2624 49.9294L15.1374 63.0544L13.9452 55.8685C13.9075 55.6443 13.8008 55.4375 13.6401 55.2767C13.4794 55.116 13.2725 55.0093 13.0484 54.9716L5.8515 53.7685L18.0249 41.5622C18.2041 41.353 18.2978 41.0838 18.2871 40.8086C18.2765 40.5333 18.1624 40.2722 17.9676 40.0774C17.7728 39.8826 17.5117 39.7685 17.2364 39.7578C16.9611 39.7472 16.692 39.8408 16.4827 40.02L2.79994 53.7247C2.65895 53.8667 2.55963 54.0447 2.5128 54.2393C2.46596 54.4338 2.4734 54.6375 2.53431 54.8282C2.59523 55.0188 2.70727 55.189 2.85825 55.3204C3.00922 55.4518 3.19334 55.5392 3.39056 55.5731L11.8999 56.995L13.3218 65.5044C13.3558 65.7016 13.4432 65.8857 13.5746 66.0367C13.7059 66.1877 13.8762 66.2997 14.0668 66.3606C14.2574 66.4215 14.4611 66.429 14.6557 66.3822C14.8502 66.3353 15.0282 66.236 15.1702 66.095L17.4999 40.5778ZM59.7296 47.8075C59.9333 47.6026 60.0477 47.3254 60.0477 47.0364C60.0477 46.7475 59.9333 46.4703 59.7296 46.2653L53.5937 40.1513C53.3845 39.9721 53.1153 39.8784 52.84 39.8891C52.5648 39.8997 52.3036 40.0138 52.1089 40.2086C51.9141 40.4034 51.7999 40.6645 51.7893 40.9398C51.7787 41.2151 51.8723 41.4842 52.0515 41.6935L58.1546 47.7966C58.3596 48.0003 58.6368 48.1146 58.9257 48.1146C59.2147 48.1146 59.4919 48.0003 59.6968 47.7966L59.7296 47.8075ZM55.9343 66.4013C56.1257 66.3395 56.2965 66.2262 56.4277 66.0738C56.5589 65.9214 56.6455 65.7357 56.6781 65.5372L58.0999 57.0278L66.6093 55.606C66.8065 55.572 66.9907 55.4846 67.1416 55.3532C67.2926 55.2219 67.4046 55.0516 67.4656 54.861C67.5265 54.6703 67.5339 54.4667 67.4871 54.2721C67.4402 54.0775 67.3409 53.8995 67.1999 53.7575L64.0937 50.6294C63.8845 50.4502 63.6153 50.3566 63.34 50.3672C63.0648 50.3778 62.8036 50.492 62.6089 50.6867C62.4141 50.8815 62.2999 51.1427 62.2893 51.4179C62.2787 51.6932 62.3723 51.9623 62.5515 52.1716L64.1484 53.7685L56.9624 54.9606C56.7383 54.9984 56.5315 55.1051 56.3707 55.2658C56.21 55.4265 56.1033 55.6334 56.0656 55.8575L54.8734 63.0435L42.339 50.52C42.1298 50.3408 41.8606 50.2472 41.5853 50.2578C41.3101 50.2685 41.049 50.3826 40.8542 50.5774C40.6594 50.7722 40.5453 51.0333 40.5346 51.3085C40.524 51.5838 40.6176 51.853 40.7968 52.0622L54.8187 66.1059C54.959 66.2465 55.1349 66.3463 55.3276 66.3945C55.5203 66.4426 55.7225 66.4374 55.9124 66.3794L55.9343 66.4013ZM61.2499 48.1247C61.0336 48.1247 60.8222 48.1888 60.6423 48.309C60.4624 48.4292 60.3222 48.6 60.2394 48.7999C60.1567 48.9997 60.135 49.2197 60.1772 49.4318C60.2194 49.644 60.3236 49.8389 60.4765 49.9919C60.6295 50.1448 60.8244 50.249 61.0366 50.2912C61.2487 50.3334 61.4686 50.3117 61.6685 50.2289C61.8684 50.1462 62.0392 50.006 62.1594 49.8261C62.2795 49.6462 62.3437 49.4348 62.3437 49.2185C62.3437 48.9284 62.2285 48.6502 62.0233 48.4451C61.8182 48.2399 61.54 48.1247 61.2499 48.1247Z" fill="#FC4A1A"/>
</g>
<defs>
<clipPath id="clip0_4570_14258">
<rect width="70" height="70" fill="white"/>
</clipPath>
</defs>
</svg>
