<svg width="66" height="70" viewBox="0 0 66 70" fill="none" xmlns="http://www.w3.org/2000/svg">
<g clip-path="url(#clip0_4497_12606)">
<path d="M33.0002 44.8439C30.1877 44.8439 27.4218 44.0814 24.9653 42.6288C22.5088 41.1762 20.4431 39.0817 18.9645 36.5442C17.4858 34.0067 16.6433 31.1105 16.5169 28.1305C16.3904 25.1506 16.9843 22.1858 18.2421 19.5177C19.4999 16.8496 21.3799 14.5669 23.7035 12.8861C26.0271 11.2054 28.7172 10.1825 31.5184 9.91465C34.3196 9.64676 37.1388 10.1427 39.7084 11.3555C42.278 12.5683 44.5127 14.4575 46.2002 16.8439C46.3643 17.076 46.4348 17.3677 46.3961 17.6549C46.3574 17.942 46.2127 18.2011 45.9939 18.3752C45.7751 18.5492 45.5001 18.624 45.2294 18.5829C44.9586 18.5419 44.7143 18.3885 44.5502 18.1564C42.3408 15.0516 39.0961 12.9597 35.4802 12.3091C31.8643 11.6584 28.1507 12.4982 25.0994 14.6564C22.0481 16.8147 19.89 20.1283 19.0668 23.9189C18.2436 27.7095 18.8175 31.6905 20.6711 35.047C22.5248 38.4034 25.5179 40.8816 29.0378 41.9742C32.5577 43.0668 36.3383 42.6912 39.6057 40.9242C42.873 39.1573 45.3801 36.1327 46.6137 32.4694C47.8473 28.8062 47.7141 24.7814 46.2414 21.2189C46.1787 21.0862 46.1421 20.9413 46.1338 20.7931C46.1256 20.6449 46.1459 20.4964 46.1935 20.3568C46.2411 20.2171 46.315 20.0892 46.4107 19.9809C46.5064 19.8725 46.6219 19.7859 46.7502 19.7265C46.8785 19.667 47.0168 19.6358 47.1568 19.6349C47.2968 19.634 47.4355 19.6633 47.5645 19.7211C47.6935 19.7788 47.81 19.8639 47.907 19.9709C48.004 20.078 48.0794 20.2049 48.1286 20.3439C49.2247 23.0076 49.6781 25.9188 49.4477 28.8149C49.2174 31.7109 48.3107 34.5004 46.8094 36.9317C45.3081 39.363 43.2595 41.3595 40.8486 42.7408C38.4377 44.1222 35.7404 44.845 33.0002 44.8439ZM37.7646 35.4377C37.9246 35.3161 38.0484 35.1486 38.1215 34.9547C38.1946 34.7609 38.2139 34.549 38.1771 34.3439L37.4758 29.9689L40.4458 26.8955C40.5848 26.7535 40.6835 26.573 40.7306 26.3746C40.7777 26.1761 40.7714 25.9676 40.7123 25.7727C40.6532 25.5779 40.5437 25.4045 40.3964 25.2724C40.249 25.1402 40.0696 25.0546 39.8786 25.0252L35.7536 24.3908L33.9283 20.508C33.8428 20.326 33.7111 20.1729 33.5481 20.0659C33.385 19.9588 33.1971 19.9021 33.0054 19.9021C32.8136 19.9021 32.6257 19.9588 32.4626 20.0659C32.2996 20.1729 32.1679 20.326 32.0824 20.508L30.2468 24.4564L26.1218 25.0908C25.9308 25.1202 25.7514 25.2058 25.604 25.338C25.4567 25.4701 25.3472 25.6435 25.2881 25.8383C25.229 26.0332 25.2227 26.2417 25.2698 26.4402C25.3169 26.6387 25.4156 26.8192 25.5546 26.9611L28.5246 30.0346L27.8233 34.4096C27.7919 34.6102 27.8138 34.8162 27.8867 35.0044C27.9596 35.1925 28.0804 35.3554 28.2358 35.4747C28.3911 35.594 28.5747 35.665 28.766 35.6797C28.9573 35.6944 29.1487 35.6523 29.3186 35.558L33.0002 33.4689L36.6714 35.5143C36.8417 35.6079 37.0333 35.6494 37.2246 35.6339C37.4159 35.6185 37.5993 35.5467 37.7543 35.4267L37.7646 35.4377ZM32.5258 31.2705L30.2158 32.5502L30.6593 29.8268C30.6863 29.6526 30.6732 29.4742 30.6212 29.3065C30.5691 29.1389 30.4796 28.9872 30.3602 28.8642L28.4936 26.9392L31.0718 26.5455C31.237 26.5192 31.3937 26.4507 31.5284 26.3459C31.6632 26.2411 31.7719 26.1032 31.8452 25.9439L33.0002 23.4611L34.1552 25.933C34.2285 26.0922 34.3372 26.2302 34.472 26.335C34.6067 26.4397 34.7634 26.5082 34.9286 26.5346L37.5068 26.9283L35.6402 28.8533C35.5208 28.9763 35.4313 29.128 35.3792 29.2956C35.3271 29.4632 35.3141 29.6417 35.3411 29.8158L35.7846 32.5393L33.4849 31.2596C33.337 31.1772 33.1724 31.1341 33.0054 31.1341C32.8383 31.1341 32.6737 31.1772 32.5258 31.2596V31.2705ZM38.2493 51.7127C39.3748 51.3082 40.3547 50.5441 41.0543 49.5252C41.4524 48.9905 41.9337 48.5318 42.4774 48.1689C43.0965 47.936 43.7488 47.8176 44.4058 47.8189C45.5702 47.8571 46.7179 47.5175 47.6955 46.8455C48.5326 45.9818 49.1011 44.8675 49.3249 43.6518C49.4678 42.977 49.7189 42.3332 50.0674 41.7486C50.5258 41.2621 51.0595 40.8626 51.6452 40.5674C52.7196 40.0648 53.623 39.225 54.2336 38.1611C54.632 37.0073 54.6895 35.7521 54.3986 34.5627C54.2516 33.8778 54.2167 33.1711 54.2955 32.4736C54.5058 31.8394 54.8162 31.2477 55.2133 30.7236C55.9745 29.7683 56.4423 28.5891 56.5539 27.3439C56.4405 26.0887 55.9652 24.9009 55.1927 23.9424C54.7954 23.4185 54.485 22.8267 54.2749 22.1924C54.1963 21.4949 54.2311 20.7883 54.378 20.1033C54.6696 18.914 54.612 17.6586 54.213 16.5049C53.6029 15.4406 52.6994 14.6006 51.6246 14.0986C51.0388 13.8034 50.5052 13.4039 50.0468 12.9174C49.6985 12.3327 49.4474 11.689 49.3043 11.0143C49.0799 9.79875 48.5115 8.68466 47.6749 7.8205C46.6973 7.14849 45.5496 6.80889 44.3852 6.84706C43.7282 6.84843 43.0759 6.73004 42.4568 6.49706C41.916 6.12978 41.4382 5.66743 41.0439 5.12988C40.3443 4.111 39.3645 3.34685 38.2389 2.94238C37.097 2.79097 35.9387 3.01226 34.9183 3.57675C34.3178 3.90083 33.6688 4.11178 33.0002 4.20019C32.3341 4.12554 31.6852 3.92943 31.0821 3.6205C30.0615 3.05667 28.9034 2.83542 27.7614 2.98613C26.6359 3.3906 25.656 4.15475 24.9564 5.17363C24.5583 5.70836 24.077 6.16704 23.5333 6.52988C22.9142 6.76286 22.2619 6.88125 21.6049 6.87988C20.4405 6.8417 19.2928 7.18131 18.3152 7.85331C17.4781 8.71705 16.9096 9.83132 16.6858 11.0471C16.5429 11.7219 16.2918 12.3656 15.9433 12.9502C15.4849 13.4367 14.9512 13.8363 14.3655 14.1314C13.2911 14.634 12.3877 15.4738 11.7771 16.5377C11.6668 16.7818 11.5838 17.0388 11.5296 17.3033C11.4708 17.5934 11.523 17.8964 11.6748 18.1456C11.8267 18.3948 12.0656 18.5699 12.3391 18.6322C12.6126 18.6946 12.8983 18.6392 13.1332 18.4781C13.3682 18.3171 13.5333 18.0637 13.5921 17.7736C13.6127 17.6754 13.6438 17.58 13.6849 17.4893C14.1345 16.8496 14.7358 16.3477 15.4277 16.0346C16.2275 15.5938 16.9413 14.9962 17.5314 14.2736C18.0534 13.4771 18.4278 12.5825 18.6349 11.6377C18.7735 10.8567 19.1043 10.1284 19.5939 9.52675C20.2548 9.16202 20.9947 8.98848 21.7389 9.02363C22.658 9.02042 23.5681 8.83109 24.4202 8.46581C25.2126 7.99494 25.9127 7.36749 26.4827 6.61738C26.9283 5.9657 27.53 5.45215 28.2255 5.12988C28.9449 5.11855 29.655 5.30308 30.288 5.66581C31.1295 6.08923 32.0396 6.33797 32.9693 6.39863C33.8989 6.33771 34.8089 6.08898 35.6505 5.66581C36.2835 5.30308 36.9936 5.11855 37.713 5.12988C38.4287 5.42519 39.0559 5.92026 39.528 6.56269C40.0978 7.313 40.7979 7.94047 41.5905 8.41113C42.4419 8.78015 43.352 8.97319 44.2718 8.97988C45.0162 8.96061 45.7524 9.1492 46.4064 9.52675C46.8902 10.1339 47.214 10.8659 47.3449 11.6486C47.5582 12.5951 47.9397 13.4897 48.4689 14.2846C49.0844 14.9988 49.823 15.5817 50.6449 16.0018C51.3344 16.3299 51.9289 16.8472 52.3671 17.5002C52.5587 18.2597 52.5587 19.0594 52.3671 19.8189C52.1644 20.7742 52.1364 21.7618 52.2846 22.7283C52.5418 23.643 52.9618 24.4969 53.5221 25.2439C54.0485 25.859 54.4053 26.6158 54.5533 27.4314C54.4053 28.2471 54.0485 29.0039 53.5221 29.6189C52.962 30.3661 52.542 31.22 52.2846 32.1346C52.1364 33.101 52.1644 34.0887 52.3671 35.0439C52.5583 35.8036 52.5583 36.6031 52.3671 37.3627C51.9174 38.0023 51.3161 38.5042 50.6243 38.8174C49.8188 39.2035 49.0879 39.745 48.4689 40.4143C47.947 41.2108 47.5726 42.1053 47.3655 43.0502C47.2269 43.8312 46.896 44.5595 46.4064 45.1611C45.7456 45.5259 45.0057 45.6994 44.2614 45.6643C43.3424 45.6675 42.4323 45.8568 41.5802 46.2221C40.7878 46.6929 40.0877 47.3204 39.5177 48.0705C39.0721 48.7222 38.4704 49.2357 37.7749 49.558C37.0554 49.5698 36.3452 49.3853 35.7124 49.0221C34.8709 48.5986 33.9608 48.3499 33.0311 48.2893C32.1015 48.3502 31.1915 48.5989 30.3499 49.0221C29.7171 49.3853 29.0068 49.5698 28.2874 49.558C27.5716 49.2627 26.9445 48.7676 26.4724 48.1252C25.9026 47.3749 25.2025 46.7474 24.4099 46.2768C23.5585 45.9077 22.6484 45.7147 21.7286 45.708C20.9842 45.7273 20.248 45.5387 19.5939 45.1611C19.1101 44.554 18.7864 43.8219 18.6555 43.0393C18.4422 42.0928 18.0607 41.1982 17.5314 40.4033C16.916 39.6891 16.1774 39.1062 15.3555 38.6861C14.666 38.358 14.0715 37.8407 13.6333 37.1877C13.4417 36.4281 13.4417 35.6285 13.6333 34.8689C13.836 33.9137 13.864 32.926 13.7158 31.9596C13.4586 31.0449 13.0386 30.1909 12.4783 29.4439C11.9519 28.8289 11.5951 28.0721 11.4471 27.2564C11.5956 26.4409 11.9523 25.6843 12.4783 25.0689L12.8186 24.5439C13.2282 23.9431 13.5322 23.2687 13.7158 22.5533C13.8241 21.8837 13.8241 21.1995 13.7158 20.5299C13.6996 20.3862 13.6568 20.2474 13.59 20.1213C13.5231 19.9952 13.4335 19.8843 13.3263 19.7949C13.219 19.7055 13.0962 19.6394 12.9649 19.6004C12.8335 19.5614 12.6962 19.5501 12.5608 19.5674C12.4254 19.5846 12.2945 19.63 12.1756 19.7009C12.0567 19.7718 11.9521 19.8668 11.8679 19.9805C11.7836 20.0943 11.7213 20.2245 11.6845 20.3638C11.6476 20.5031 11.6371 20.6487 11.6533 20.7924C11.7212 21.2159 11.7212 21.6485 11.6533 22.0721C11.5219 22.5273 11.3198 22.9562 11.0552 23.3408L10.7355 23.833C9.96929 24.831 9.51833 26.0592 9.44644 27.3439C9.55985 28.5992 10.0352 29.7869 10.8077 30.7455C11.205 31.2694 11.5153 31.8612 11.7255 32.4955C11.8041 33.193 11.7692 33.8996 11.6224 34.5846C11.3308 35.7739 11.3884 37.0293 11.7874 38.183C12.3975 39.2473 13.301 40.0872 14.3758 40.5893C14.9616 40.8844 15.4952 41.284 15.9536 41.7705C16.3019 42.3552 16.553 42.9989 16.6961 43.6736C16.9205 44.8891 17.4889 46.0032 18.3255 46.8674C19.3031 47.5394 20.4508 47.879 21.6152 47.8408C22.2722 47.8394 22.9245 47.9578 23.5436 48.1908C24.0872 48.5538 24.5685 49.0125 24.9668 49.5471C25.6663 50.5659 26.6462 51.3301 27.7718 51.7346C28.9137 51.8846 30.0716 51.6634 31.0924 51.1002C31.6903 50.7811 32.3358 50.5739 33.0002 50.4877C33.6663 50.5623 34.3152 50.7585 34.9183 51.0674C35.7375 51.4797 36.6227 51.7246 37.5274 51.7893C37.7669 51.7884 38.0056 51.7591 38.2389 51.7018L38.2493 51.7127ZM16.5002 40.5783L14.3139 66.1064L28.1018 51.4721C28.2707 51.2628 28.359 50.9937 28.349 50.7184C28.3389 50.4431 28.2313 50.182 28.0477 49.9872C27.864 49.7924 27.6178 49.6783 27.3583 49.6677C27.0987 49.6571 26.845 49.7507 26.6477 49.9299L14.2727 63.0549L13.1486 55.8689C13.113 55.6448 13.0125 55.438 12.8609 55.2772C12.7094 55.1165 12.5144 55.0098 12.303 54.9721L5.51738 53.7689L16.9952 41.5627C17.1641 41.3535 17.2524 41.0843 17.2424 40.809C17.2324 40.5338 17.1248 40.2726 16.9411 40.0779C16.7575 39.8831 16.5113 39.769 16.2517 39.7583C15.9922 39.7477 15.7384 39.8413 15.5411 40.0205L2.64019 53.7252C2.50726 53.8672 2.41362 54.0452 2.36946 54.2398C2.3253 54.4343 2.33232 54.638 2.38975 54.8286C2.44718 55.0193 2.55282 55.1895 2.69517 55.3209C2.83752 55.4522 3.01112 55.5397 3.19707 55.5736L11.2202 56.9955L12.5608 65.5049C12.5928 65.7021 12.6753 65.8862 12.7991 66.0372C12.923 66.1882 13.0835 66.3002 13.2632 66.3611C13.443 66.422 13.635 66.4295 13.8185 66.3826C14.0019 66.3358 14.1697 66.2365 14.3036 66.0955L16.5002 40.5783ZM56.3168 47.808C56.5088 47.6031 56.6166 47.3259 56.6166 47.0369C56.6166 46.748 56.5088 46.4707 56.3168 46.2658L50.5314 40.1518C50.3342 39.9726 50.0804 39.8789 49.8209 39.8896C49.5613 39.9002 49.3151 40.0143 49.1315 40.2091C48.9478 40.4039 48.8402 40.665 48.8302 40.9403C48.8202 41.2156 48.9084 41.4847 49.0774 41.6939L54.8318 47.7971C55.025 48.0008 55.2863 48.1151 55.5588 48.1151C55.8312 48.1151 56.0926 48.0008 56.2858 47.7971L56.3168 47.808ZM52.7383 66.4018C52.9188 66.34 53.0798 66.2267 53.2035 66.0743C53.3272 65.9218 53.4089 65.7362 53.4396 65.5377L54.7802 57.0283L62.8033 55.6064C62.9893 55.5725 63.1629 55.4851 63.3052 55.3537C63.4476 55.2223 63.5532 55.0521 63.6106 54.8615C63.6681 54.6708 63.6751 54.4671 63.6309 54.2726C63.5868 54.078 63.4931 53.9 63.3602 53.758L60.4314 50.6299C60.2342 50.4507 59.9804 50.3571 59.7209 50.3677C59.4613 50.3783 59.2151 50.4924 59.0315 50.6872C58.8478 50.882 58.7402 51.1431 58.7302 51.4184C58.7202 51.6937 58.8084 51.9628 58.9774 52.1721L60.483 53.7689L53.7077 54.9611C53.4963 54.9989 53.3013 55.1055 53.1498 55.2663C52.9982 55.427 52.8977 55.6338 52.8621 55.858L51.738 63.0439L39.9199 50.5205C39.7226 50.3413 39.4688 50.2477 39.2093 50.2583C38.9498 50.2689 38.7036 50.3831 38.5199 50.5779C38.3362 50.7726 38.2286 51.0338 38.2186 51.309C38.2086 51.5843 38.2969 51.8535 38.4658 52.0627L51.6864 66.1064C51.8187 66.247 51.9846 66.3468 52.1663 66.3949C52.348 66.4431 52.5386 66.4379 52.7177 66.3799L52.7383 66.4018ZM57.7502 48.1252C57.5462 48.1252 57.3469 48.1893 57.1773 48.3095C57.0077 48.4297 56.8755 48.6005 56.7974 48.8004C56.7194 49.0002 56.699 49.2202 56.7388 49.4323C56.7785 49.6445 56.8768 49.8394 57.021 49.9923C57.1652 50.1453 57.349 50.2495 57.549 50.2917C57.749 50.3339 57.9564 50.3122 58.1448 50.2294C58.3333 50.1466 58.4943 50.0065 58.6076 49.8266C58.721 49.6467 58.7814 49.4353 58.7814 49.2189C58.7814 48.9289 58.6728 48.6507 58.4794 48.4455C58.286 48.2404 58.0237 48.1252 57.7502 48.1252Z" fill="url(#paint0_linear_4497_12606)"/>
</g>
<defs>
<linearGradient id="paint0_linear_4497_12606" x1="2.34082" y1="34.6618" x2="63.6596" y2="34.6618" gradientUnits="userSpaceOnUse">
<stop stop-color="#FC4A1A"/>
<stop offset="1" stop-color="#F7B733"/>
</linearGradient>
<clipPath id="clip0_4497_12606">
<rect width="66" height="70" fill="white"/>
</clipPath>
</defs>
</svg>
