<svg width="66" height="70" viewBox="0 0 66 70" fill="none" xmlns="http://www.w3.org/2000/svg">
<g clip-path="url(#clip0_4497_12600)">
<path d="M22.6433 50.6743C30.3758 45.2145 26.5405 32.8431 16.9531 32.8125C7.3755 32.8427 3.53314 45.1964 11.2481 50.663C9.33033 51.6853 7.7278 53.2114 6.61307 55.0769C5.49834 56.9425 4.91365 59.0768 4.92196 61.25V64.5312C4.9219 64.747 4.98566 64.958 5.1052 65.1376C5.22475 65.3172 5.39475 65.4574 5.59381 65.5406C9.19143 67.0461 13.0533 67.8184 16.9532 67.8125C20.852 67.8073 24.7117 67.0353 28.3126 65.5406C28.5117 65.4574 28.6817 65.3172 28.8012 65.1376C28.9208 64.958 28.9845 64.747 28.9845 64.5312V61.25C28.9872 59.0776 28.3984 56.9454 27.2812 55.0823C26.1641 53.2191 24.5608 51.6953 22.6433 50.6743ZM9.29696 42.6562C9.29933 40.6264 10.1067 38.6804 11.542 37.2451C12.9774 35.8098 14.9234 35.0024 16.9532 35C27.0962 35.3851 27.0935 49.9289 16.9531 50.3125C14.9233 50.3101 12.9773 49.5027 11.542 48.0674C10.1067 46.6321 9.29932 44.6861 9.29696 42.6562ZM26.797 63.7921C20.4608 66.2299 13.4456 66.2299 7.10946 63.7921V61.25C7.12106 59.2049 7.76521 57.2134 8.95352 55.5489C10.1418 53.8843 11.8161 52.6283 13.7466 51.9531C15.8201 52.6737 18.0759 52.675 20.1502 51.9566C22.0878 52.6208 23.7697 53.8733 24.9613 55.5393C26.1528 57.2053 26.7946 59.2017 26.797 61.25V63.7921Z" fill="url(#paint0_linear_4497_12600)"/>
<path d="M58.737 20.0493C66.4696 14.5895 62.6343 2.21813 53.0468 2.1875C43.4692 2.21768 39.6269 14.5714 47.3418 20.038C45.4241 21.0603 43.8216 22.5864 42.7068 24.4519C41.5921 26.3175 41.0074 28.4518 41.0157 30.625V33.9062C41.0157 34.122 41.0794 34.333 41.199 34.5126C41.3185 34.6922 41.4885 34.8324 41.6876 34.9156C45.2852 36.4211 49.1471 37.1934 53.047 37.1875C56.9458 37.1823 60.8055 36.4103 64.4064 34.9156C64.6054 34.8324 64.7754 34.6922 64.895 34.5126C65.0145 34.333 65.0783 34.122 65.0782 33.9062V30.625C65.0809 28.4526 64.4921 26.3204 63.375 24.4573C62.2578 22.5941 60.6545 21.0703 58.737 20.0493ZM45.3907 12.0312C45.3931 10.0014 46.2005 8.05539 47.6358 6.62008C49.0711 5.18477 51.0171 4.37737 53.047 4.375C63.19 4.76012 63.1872 19.3039 53.0469 19.6875C51.0171 19.6851 49.0711 18.8777 47.6358 17.4424C46.2005 16.0071 45.3931 14.0611 45.3907 12.0312ZM54.1407 21.8105V22.9688C54.1407 23.2588 54.0255 23.537 53.8204 23.7421C53.6152 23.9473 53.337 24.0625 53.047 24.0625C52.7569 24.0625 52.4787 23.9473 52.2736 23.7421C52.0684 23.537 51.9532 23.2588 51.9532 22.9688V21.8105C52.6799 21.8951 53.414 21.8951 54.1407 21.8105ZM62.8907 33.1671C56.5546 35.6049 49.5393 35.6049 43.2032 33.1671V30.625C43.2148 28.5934 43.8506 26.6144 45.0244 24.9561C46.1983 23.2979 47.8534 22.0405 49.7657 21.3543V22.9688C49.7657 23.839 50.1114 24.6736 50.7268 25.2889C51.3421 25.9043 52.1767 26.25 53.047 26.25C53.9172 26.25 54.7518 25.9043 55.3672 25.2889C55.9825 24.6736 56.3282 23.839 56.3282 22.9688V21.363C58.2456 22.0387 59.9062 23.2923 61.0815 24.951C62.2568 26.6097 62.8889 28.5921 62.8907 30.625V33.1671Z" fill="url(#paint1_linear_4497_12600)"/>
<path d="M56.3281 28.4375C56.3281 28.5811 56.3564 28.7234 56.4113 28.8561C56.4663 28.9888 56.5468 29.1094 56.6484 29.211C56.75 29.3126 56.8706 29.3931 57.0033 29.4481C57.136 29.503 57.2782 29.5313 57.4219 29.5312H60.7031C60.9932 29.5312 61.2714 29.416 61.4765 29.2109C61.6816 29.0058 61.7969 28.7276 61.7969 28.4375C61.7969 28.1474 61.6816 27.8692 61.4765 27.6641C61.2714 27.459 60.9932 27.3438 60.7031 27.3438H57.4219C57.2782 27.3437 57.136 27.372 57.0033 27.4269C56.8706 27.4819 56.75 27.5624 56.6484 27.664C56.5468 27.7656 56.4663 27.8862 56.4113 28.0189C56.3564 28.1516 56.3281 28.2939 56.3281 28.4375Z" fill="url(#paint2_linear_4497_12600)"/>
<path d="M34.2646 28.3019C35.4311 26.8614 34.0441 25.5739 33.7247 24.0625H35.5469C36.7068 24.0613 37.8189 23.5999 38.6391 22.7797C39.4593 21.9595 39.9206 20.8474 39.9219 19.6875V6.5625C39.9206 5.40256 39.4593 4.29048 38.6391 3.47027C37.8189 2.65007 36.7068 2.18874 35.5469 2.1875H11.4844C10.3244 2.18874 9.21235 2.65007 8.39215 3.47027C7.57194 4.29048 7.11061 5.40256 7.10938 6.5625V19.6875C7.11061 20.8474 7.57194 21.9595 8.39215 22.7797C9.21235 23.5999 10.3244 24.0613 11.4844 24.0625H25.7261C26.3607 25.2875 27.2446 26.3661 28.3209 27.2292C29.3971 28.0923 30.6421 28.7207 31.9756 29.0741C32.3907 29.1874 32.8302 29.1745 33.2379 29.037C33.6456 28.8995 34.003 28.6435 34.2646 28.3019ZM27.4025 22.517C27.3157 22.3256 27.1756 22.1632 26.999 22.0494C26.8223 21.9355 26.6166 21.875 26.4065 21.875H11.4844C10.9044 21.8743 10.3484 21.6437 9.93831 21.2336C9.52822 20.8235 9.29754 20.2675 9.29688 19.6875V6.5625C9.29754 5.98254 9.52822 5.42653 9.93831 5.01644C10.3484 4.60634 10.9044 4.37566 11.4844 4.375H35.5469C36.1268 4.37566 36.6828 4.60634 37.0929 5.01644C37.503 5.42653 37.7337 5.98254 37.7344 6.5625V19.6875C37.7337 20.2675 37.503 20.8235 37.0929 21.2336C36.6828 21.6437 36.1268 21.8743 35.5469 21.875H32.4039C30.1432 22.028 32.076 26.0724 32.5604 26.9656C31.4212 26.6603 30.3657 26.1017 29.4725 25.3313C28.5794 24.561 27.8718 23.599 27.4025 22.517Z" fill="url(#paint3_linear_4497_12600)"/>
<path d="M33.3594 10.9375C33.3594 10.7939 33.3311 10.6516 33.2762 10.5189C33.2212 10.3862 33.1407 10.2656 33.0391 10.164C32.9375 10.0624 32.8169 9.98188 32.6842 9.92693C32.5515 9.87198 32.4093 9.84371 32.2656 9.84375H14.7656C14.4755 9.84375 14.1973 9.95898 13.9922 10.1641C13.7871 10.3692 13.6719 10.6474 13.6719 10.9375C13.6719 11.2276 13.7871 11.5058 13.9922 11.7109C14.1973 11.916 14.4755 12.0312 14.7656 12.0312H32.2656C32.4093 12.0313 32.5515 12.003 32.6842 11.9481C32.8169 11.8931 32.9375 11.8126 33.0391 11.711C33.1407 11.6094 33.2212 11.4888 33.2762 11.3561C33.3311 11.2234 33.3594 11.0811 33.3594 10.9375Z" fill="url(#paint4_linear_4497_12600)"/>
<path d="M33.3594 15.3125C33.3594 15.1689 33.3311 15.0266 33.2762 14.8939C33.2212 14.7612 33.1407 14.6406 33.0391 14.539C32.9375 14.4374 32.8169 14.3569 32.6842 14.3019C32.5515 14.247 32.4093 14.2187 32.2656 14.2188H23.5156C23.2255 14.2188 22.9473 14.334 22.7422 14.5391C22.5371 14.7442 22.4219 15.0224 22.4219 15.3125C22.4219 15.6026 22.5371 15.8808 22.7422 16.0859C22.9473 16.291 23.2255 16.4062 23.5156 16.4062H32.2656C32.4093 16.4063 32.5515 16.378 32.6842 16.3231C32.8169 16.2681 32.9375 16.1876 33.0391 16.086C33.1407 15.9844 33.2212 15.8638 33.2762 15.7311C33.3311 15.5984 33.3594 15.4561 33.3594 15.3125Z" fill="url(#paint5_linear_4497_12600)"/>
<path d="M60.7031 45.9377H46.4614C45.8268 44.7127 44.9429 43.634 43.8666 42.771C42.7904 41.9079 41.5454 41.2795 40.2119 40.9261C39.7968 40.8123 39.3572 40.8249 38.9494 40.9625C38.5416 41.1001 38.1841 41.3563 37.9229 41.6984C36.7572 43.1384 38.143 44.4265 38.4628 45.9377H36.6406C35.4807 45.939 34.3686 46.4003 33.5484 47.2205C32.7282 48.0407 32.2669 49.1528 32.2656 50.3127V63.4377C32.2669 64.5976 32.7282 65.7097 33.5484 66.5299C34.3686 67.3501 35.4807 67.8114 36.6406 67.8127H60.7031C61.8631 67.8114 62.9751 67.3501 63.7954 66.5299C64.6156 65.7097 65.0769 64.5976 65.0781 63.4377V50.3127C65.0769 49.1527 64.6156 48.0406 63.7954 47.2204C62.9751 46.4002 61.8631 45.9389 60.7031 45.9377ZM62.8906 63.4377C62.89 64.0176 62.6593 64.5736 62.2492 64.9837C61.8391 65.3938 61.2831 65.6245 60.7031 65.6252H36.6406C36.0607 65.6245 35.5047 65.3938 35.0946 64.9837C34.6845 64.5736 34.4538 64.0176 34.4531 63.4377V50.3127C34.4538 49.7327 34.6845 49.1767 35.0946 48.7666C35.5047 48.3565 36.0607 48.1258 36.6406 48.1252H39.7836C42.0463 47.9702 40.1101 43.9283 39.6271 43.0345C40.7663 43.3399 41.8218 43.8985 42.715 44.6688C43.6081 45.4391 44.3157 46.4012 44.785 47.4832C44.8718 47.6746 45.0119 47.837 45.1885 47.9508C45.3652 48.0647 45.5709 48.1252 45.781 48.1252H60.7031C61.2831 48.1258 61.8391 48.3565 62.2492 48.7666C62.6593 49.1767 62.89 49.7327 62.8906 50.3127V63.4377Z" fill="url(#paint6_linear_4497_12600)"/>
<path d="M57.4223 57.9688H39.9223C39.6351 57.973 39.361 58.0901 39.1594 58.2948C38.9577 58.4995 38.8447 58.7752 38.8447 59.0625C38.8447 59.3498 38.9578 59.6256 39.1594 59.8302C39.3611 60.0349 39.6351 60.152 39.9224 60.1562H57.4223C57.7096 60.152 57.9837 60.0349 58.1853 59.8302C58.387 59.6256 58.5 59.3498 58.5 59.0625C58.5 58.7752 58.387 58.4994 58.1853 58.2948C57.9837 58.0901 57.7096 57.973 57.4223 57.9688Z" fill="url(#paint7_linear_4497_12600)"/>
<path d="M57.4221 53.5938H48.6721C48.3847 53.5978 48.1105 53.7149 47.9087 53.9195C47.7069 54.1242 47.5937 54.4001 47.5938 54.6875C47.5938 54.975 47.7069 55.2508 47.9087 55.4555C48.1105 55.6602 48.3848 55.7772 48.6722 55.7812H57.4221C57.7095 55.7772 57.9838 55.6602 58.1856 55.4555C58.3874 55.2508 58.5005 54.9749 58.5005 54.6875C58.5005 54.4001 58.3874 54.1242 58.1856 53.9195C57.9838 53.7148 57.7095 53.5978 57.4221 53.5938Z" fill="url(#paint8_linear_4497_12600)"/>
</g>
<defs>
<linearGradient id="paint0_linear_4497_12600" x1="4.92188" y1="50.3125" x2="28.9845" y2="50.3125" gradientUnits="userSpaceOnUse">
<stop stop-color="#FC4A1A"/>
<stop offset="1" stop-color="#F7B733"/>
</linearGradient>
<linearGradient id="paint1_linear_4497_12600" x1="41.0156" y1="19.6875" x2="65.0782" y2="19.6875" gradientUnits="userSpaceOnUse">
<stop stop-color="#FC4A1A"/>
<stop offset="1" stop-color="#F7B733"/>
</linearGradient>
<linearGradient id="paint2_linear_4497_12600" x1="56.3281" y1="28.4375" x2="61.7969" y2="28.4375" gradientUnits="userSpaceOnUse">
<stop stop-color="#FC4A1A"/>
<stop offset="1" stop-color="#F7B733"/>
</linearGradient>
<linearGradient id="paint3_linear_4497_12600" x1="7.10938" y1="15.669" x2="39.9219" y2="15.669" gradientUnits="userSpaceOnUse">
<stop stop-color="#FC4A1A"/>
<stop offset="1" stop-color="#F7B733"/>
</linearGradient>
<linearGradient id="paint4_linear_4497_12600" x1="13.6719" y1="10.9375" x2="33.3594" y2="10.9375" gradientUnits="userSpaceOnUse">
<stop stop-color="#FC4A1A"/>
<stop offset="1" stop-color="#F7B733"/>
</linearGradient>
<linearGradient id="paint5_linear_4497_12600" x1="22.4219" y1="15.3125" x2="33.3594" y2="15.3125" gradientUnits="userSpaceOnUse">
<stop stop-color="#FC4A1A"/>
<stop offset="1" stop-color="#F7B733"/>
</linearGradient>
<linearGradient id="paint6_linear_4497_12600" x1="32.2656" y1="54.3309" x2="65.0781" y2="54.3309" gradientUnits="userSpaceOnUse">
<stop stop-color="#FC4A1A"/>
<stop offset="1" stop-color="#F7B733"/>
</linearGradient>
<linearGradient id="paint7_linear_4497_12600" x1="38.8447" y1="59.0625" x2="58.5" y2="59.0625" gradientUnits="userSpaceOnUse">
<stop stop-color="#FC4A1A"/>
<stop offset="1" stop-color="#F7B733"/>
</linearGradient>
<linearGradient id="paint8_linear_4497_12600" x1="47.5938" y1="54.6875" x2="58.5005" y2="54.6875" gradientUnits="userSpaceOnUse">
<stop stop-color="#FC4A1A"/>
<stop offset="1" stop-color="#F7B733"/>
</linearGradient>
<clipPath id="clip0_4497_12600">
<rect width="66" height="70" fill="white"/>
</clipPath>
</defs>
</svg>
