<svg width="9" height="4" viewBox="0 0 9 4" fill="none" xmlns="http://www.w3.org/2000/svg">
<path d="M1.6202 3.16848C1.3722 2.87248 1.1122 2.61648 0.840195 2.40048C0.576195 2.17648 0.296195 1.99248 0.000195384 1.84848V1.33248C0.592195 1.02848 1.1322 0.584476 1.6202 0.000476122H2.5442C2.4562 0.232476 2.3522 0.452476 2.2322 0.660476C2.1202 0.860476 2.0002 1.05248 1.8722 1.23648V1.94448C2.0002 2.11248 2.1202 2.30048 2.2322 2.50848C2.3522 2.70848 2.4562 2.92848 2.5442 3.16848H1.6202ZM1.8002 2.07648L1.8122 1.09248H8.4002V2.07648H1.8002Z" fill="url(#paint0_linear_4560_1969)"/>
<defs>
<linearGradient id="paint0_linear_4560_1969" x1="-1.7998" y1="1.18848" x2="10.2002" y2="1.18848" gradientUnits="userSpaceOnUse">
<stop stop-color="#FC4A1A"/>
<stop offset="1" stop-color="#F7B733"/>
</linearGradient>
</defs>
</svg>
