<svg width="24" height="24" viewBox="0 0 24 24" fill="none" xmlns="http://www.w3.org/2000/svg">
<path d="M18.4614 0H5.53827C4.00966 0 2.76904 1.24062 2.76904 2.76923V21.2308C2.76904 22.7594 4.00966 24 5.53827 24H18.4614C19.99 24 21.2306 22.7594 21.2306 21.2308V2.76923C21.2306 1.24062 19.99 0 18.4614 0ZM19.3844 7.38462C19.3844 7.89323 18.97 8.30769 18.4614 8.30769H5.53827C5.02966 8.30769 4.6152 7.89323 4.6152 7.38462V2.76923C4.6152 2.26062 5.02966 1.84615 5.53827 1.84615H18.4614C18.97 1.84615 19.3844 2.26062 19.3844 2.76923V7.38462ZM8.3075 12C8.3075 12.5086 7.89304 12.9231 7.38443 12.9231H5.53827C5.02966 12.9231 4.6152 12.5086 4.6152 12V11.0769C4.6152 10.5683 5.02966 10.1538 5.53827 10.1538H7.38443C7.89304 10.1538 8.3075 10.5683 8.3075 11.0769V12ZM13.846 12C13.846 12.5086 13.4315 12.9231 12.9229 12.9231H11.0767C10.5681 12.9231 10.1537 12.5086 10.1537 12V11.0769C10.1537 10.5683 10.5681 10.1538 11.0767 10.1538H12.9229C13.4315 10.1538 13.846 10.5683 13.846 11.0769V12ZM19.3844 12C19.3844 12.5086 18.97 12.9231 18.4614 12.9231H16.6152C16.1066 12.9231 15.6921 12.5086 15.6921 12V11.0769C15.6921 10.5683 16.1066 10.1538 16.6152 10.1538H18.4614C18.97 10.1538 19.3844 10.5683 19.3844 11.0769V12ZM8.3075 16.6154C8.3075 17.124 7.89304 17.5385 7.38443 17.5385H5.53827C5.02966 17.5385 4.6152 17.124 4.6152 16.6154V15.6923C4.6152 15.1837 5.02966 14.7692 5.53827 14.7692H7.38443C7.89304 14.7692 8.3075 15.1837 8.3075 15.6923V16.6154ZM13.846 16.6154C13.846 17.124 13.4315 17.5385 12.9229 17.5385H11.0767C10.5681 17.5385 10.1537 17.124 10.1537 16.6154V15.6923C10.1537 15.1837 10.5681 14.7692 11.0767 14.7692H12.9229C13.4315 14.7692 13.846 15.1837 13.846 15.6923V16.6154ZM19.3844 16.6154C19.3844 17.124 18.97 17.5385 18.4614 17.5385H16.6152C16.1066 17.5385 15.6921 17.124 15.6921 16.6154V15.6923C15.6921 15.1837 16.1066 14.7692 16.6152 14.7692H18.4614C18.97 14.7692 19.3844 15.1837 19.3844 15.6923V16.6154ZM8.3075 21.2308C8.3075 21.7394 7.89304 22.1538 7.38443 22.1538H5.53827C5.02966 22.1538 4.6152 21.7394 4.6152 21.2308V20.3077C4.6152 19.7991 5.02966 19.3846 5.53827 19.3846H7.38443C7.89304 19.3846 8.3075 19.7991 8.3075 20.3077V21.2308ZM13.846 21.2308C13.846 21.7394 13.4315 22.1538 12.9229 22.1538H11.0767C10.5681 22.1538 10.1537 21.7394 10.1537 21.2308V20.3077C10.1537 19.7991 10.5681 19.3846 11.0767 19.3846H12.9229C13.4315 19.3846 13.846 19.7991 13.846 20.3077V21.2308ZM19.3844 21.2308C19.3844 21.7394 18.97 22.1538 18.4614 22.1538H16.6152C16.1066 22.1538 15.6921 21.7394 15.6921 21.2308V20.3077C15.6921 19.7991 16.1066 19.3846 16.6152 19.3846H18.4614C18.97 19.3846 19.3844 19.7991 19.3844 20.3077V21.2308Z" fill="#FFE600"/>
<path d="M17.5383 3.69261V6.46184H15.6921V3.69261H17.5383ZM17.5383 2.76953H15.6921C15.1835 2.76953 14.769 3.18399 14.769 3.69261V6.46184C14.769 6.97045 15.1835 7.38492 15.6921 7.38492H17.5383C18.0469 7.38492 18.4614 6.97045 18.4614 6.46184V3.69261C18.4614 3.18399 18.0469 2.76953 17.5383 2.76953Z" fill="#FFE600"/>
</svg>
