<svg width="24" height="24" viewBox="0 0 24 24" fill="none" xmlns="http://www.w3.org/2000/svg">
<g clip-path="url(#clip0_4475_25044)">
<path opacity="0.998" fill-rule="evenodd" clip-rule="evenodd" d="M3.70961 1.99171C4.05729 1.9472 4.35354 2.04742 4.59838 2.29231C5.64295 3.88382 6.68176 5.47929 7.71483 7.07872C7.81724 7.47728 7.77878 7.86267 7.59941 8.23485C7.03388 9.19843 6.44521 10.1465 5.83342 11.079C6.09001 11.755 6.42474 12.387 6.83761 12.975C7.93352 14.5198 9.2455 15.8493 10.7736 16.9637C11.4331 17.4386 12.1449 17.8201 12.9089 18.1083C13.7608 17.5557 14.6187 17.0124 15.4829 16.4781C15.7426 16.3246 16.0196 16.2167 16.3139 16.1544C16.4601 16.139 16.6064 16.139 16.7526 16.1544C16.8245 16.1789 16.8938 16.2097 16.9603 16.2469C18.5517 17.2783 20.1369 18.3188 21.7158 19.3685C21.8797 19.556 21.9642 19.7757 21.9697 20.0275C21.9531 20.3095 21.8723 20.5715 21.7273 20.8136C21.0761 21.705 20.349 22.5337 19.5458 23.2993C19.2691 23.5534 18.9613 23.7615 18.6224 23.9236C18.4692 23.9486 18.3153 23.9678 18.1607 23.9814C17.0528 23.953 15.9832 23.7333 14.9519 23.3224C13.4012 22.6889 11.9623 21.8717 10.6351 20.8714C7.60255 18.5816 4.96702 15.9032 2.72851 12.8363C1.91324 11.6814 1.22838 10.4482 0.673954 9.13664C0.229525 8.05921 -0.00518101 6.93776 -0.0301334 5.77228C-0.0335107 5.54351 0.0242083 5.33156 0.143003 5.13641C0.378261 4.78503 0.639881 4.45361 0.927888 4.14213C1.65774 3.37198 2.46185 2.69758 3.34025 2.11889C3.46367 2.06871 3.58678 2.02633 3.70961 1.99171Z" fill="#FFE600"/>
<path opacity="0.999" fill-rule="evenodd" clip-rule="evenodd" d="M15.3333 0.990234C15.3777 1.56094 15.3925 2.13988 15.3779 2.72708C16.8657 2.71615 18.353 2.72772 19.8398 2.76181C21.2101 3.06493 22.1062 3.91019 22.5281 5.2976C22.5693 5.46529 22.599 5.63511 22.6173 5.80708C22.6285 7.86811 22.6323 9.92916 22.6285 11.9902C21.8848 11.9902 21.1412 11.9902 20.3975 11.9902C20.4012 10.0604 20.3975 8.13058 20.3864 6.20076C20.3469 5.61172 20.0532 5.23732 19.5051 5.0776C18.1298 5.04375 16.7541 5.03217 15.3779 5.04287C15.3853 5.62202 15.3779 6.20097 15.3556 6.77971C14.1088 5.82016 12.8669 4.85524 11.6299 3.88497C12.865 2.91984 14.0995 1.95495 15.3333 0.990234Z" fill="#FFE600"/>
</g>
<defs>
<clipPath id="clip0_4475_25044">
<rect width="24" height="24" fill="white"/>
</clipPath>
</defs>
</svg>
