<svg width="70" height="70" viewBox="0 0 70 70" fill="none" xmlns="http://www.w3.org/2000/svg">
<g clip-path="url(#clip0_4492_11837)">
<g clip-path="url(#clip1_4492_11837)">
<path d="M22.5806 48.0098C20.0899 48.0098 18.0645 50.0393 18.0645 52.535C18.0645 55.0308 20.0899 57.0603 22.5806 57.0603C25.0713 57.0603 27.0967 55.0308 27.0967 52.535C27.0967 50.0393 25.0713 48.0098 22.5806 48.0098ZM22.5806 54.7976C21.3352 54.7976 20.3225 53.7829 20.3225 52.535C20.3225 51.2871 21.3352 50.2724 22.5806 50.2724C23.8259 50.2724 24.8386 51.2871 24.8386 52.535C24.8386 53.7829 23.8259 54.7976 22.5806 54.7976Z" fill="url(#paint0_linear_4492_11837)"/>
<path d="M49.6773 48.0098C47.1866 48.0098 45.1611 50.0393 45.1611 52.535C45.1611 55.0308 47.1866 57.0603 49.6773 57.0603C52.168 57.0603 54.1934 55.0308 54.1934 52.535C54.1934 50.0393 52.168 48.0098 49.6773 48.0098ZM49.6773 54.7976C48.4319 54.7976 47.4192 53.7829 47.4192 52.535C47.4192 51.2871 48.4319 50.2724 49.6773 50.2724C50.9226 50.2724 51.9353 51.2871 51.9353 52.535C51.9353 53.7829 50.9226 54.7976 49.6773 54.7976Z" fill="url(#paint1_linear_4492_11837)"/>
<path d="M67.7424 36.9051V27.8331C67.7424 26.7548 67.4364 25.7042 66.8592 24.7955L60.3271 14.5098C59.7014 13.5254 58.6335 12.9382 57.4703 12.9382H49.6779V8.41406H12.6674L10.9738 15.2019H14.4645L14.0715 17.4646H4.5166V19.7272H13.679L12.8928 24.2524H4.5166V26.5151H12.5009L11.7153 31.0403H4.5166V33.303H11.3222L10.3404 38.9595H8.03601L6.90697 48.01H6.77467C5.52931 48.01 4.5166 49.0248 4.5166 50.2727V54.7979C4.5166 56.0458 5.52931 57.0605 6.77467 57.0605H14.7705C16.3351 59.7612 19.2458 61.5858 22.5811 61.5858C25.9164 61.5858 28.8272 59.7612 30.3917 57.0605H41.8684C43.4335 59.7612 46.3437 61.5858 49.679 61.5858C53.0143 61.5858 55.9251 59.7612 57.4896 57.0605H66.3989L69.9768 40.3284L70.0005 40.0908C70.0005 38.6181 69.0534 37.3736 67.7424 36.9051ZM57.4703 15.2019C57.8579 15.2019 58.2145 15.3975 58.4224 15.7256L64.9546 26.0118C65.3013 26.556 65.4843 27.1857 65.4843 27.8331V36.6969H61.1716L60.7196 38.9595H42.9037V16.3333C42.9037 15.709 43.4109 15.2019 44.0327 15.2019H57.4703ZM14.4304 10.6767H47.4198V12.9393H13.8658L14.4304 10.6767ZM16.7562 15.2019H40.8535C40.7267 15.5571 40.6456 15.935 40.6456 16.3333V38.9595H12.6332L16.7562 15.2019ZM10.0295 41.2221H60.2681L58.9136 48.01H57.4874C55.9223 45.3093 53.0121 43.4848 49.6768 43.4848C46.3415 43.4848 43.4307 45.3093 41.8662 48.01H30.3917C28.8272 45.3093 25.9164 43.4848 22.5811 43.4848C19.2458 43.4848 16.3351 45.3093 14.7705 48.01H9.18158L10.0295 41.2221ZM6.77467 54.7979V50.2727H13.846C13.6586 50.998 13.5489 51.7525 13.5489 52.5353C13.5489 53.318 13.6586 54.0726 13.846 54.7979H6.77467ZM22.5811 59.3232C18.8451 59.3232 15.8069 56.2789 15.8069 52.5353C15.8069 48.7917 18.8451 45.7474 22.5811 45.7474C26.3172 45.7474 29.3553 48.7917 29.3553 52.5353C29.3553 56.2789 26.3172 59.3232 22.5811 59.3232ZM31.3162 54.7979C31.5037 54.0726 31.6134 53.318 31.6134 52.5353C31.6134 51.7525 31.5037 50.998 31.3162 50.2727H40.9439C40.7553 50.998 40.6456 51.7525 40.6456 52.5353C40.6456 53.318 40.7553 54.0726 40.9428 54.7979H31.3162ZM49.6779 59.3232C45.9418 59.3232 42.9037 56.2789 42.9037 52.5353C42.9037 48.7917 45.9418 45.7474 49.6779 45.7474C53.414 45.7474 56.4521 48.7917 56.4521 52.5353C56.4521 56.2789 53.414 59.3232 49.6779 59.3232ZM64.5709 54.7979H58.4119C58.6004 54.0726 58.7101 53.318 58.7101 52.5353C58.7101 51.7525 58.6004 50.998 58.413 50.2727H60.7648L63.0229 38.9595H66.6134C67.2027 38.9595 67.6884 39.413 67.738 39.9914L64.5709 54.7979Z" fill="url(#paint2_linear_4492_11837)"/>
<path d="M63.2256 27.3219L57.0772 17.4648H45.1611V32.1719H63.2256V27.3219ZM60.9676 29.9093H47.4192V19.7275H55.8257L60.9676 27.9715V29.9093Z" fill="url(#paint3_linear_4492_11837)"/>
<path d="M45.1611 34.4346H51.9353V36.6972H45.1611V34.4346Z" fill="url(#paint4_linear_4492_11837)"/>
<path d="M0 17.4648H2.25806V19.7275H0V17.4648Z" fill="url(#paint5_linear_4492_11837)"/>
<path d="M0 24.2529H2.25806V26.5156H0V24.2529Z" fill="url(#paint6_linear_4492_11837)"/>
<path d="M0 31.04H2.25806V33.3027H0V31.04Z" fill="url(#paint7_linear_4492_11837)"/>
</g>
</g>
<defs>
<linearGradient id="paint0_linear_4492_11837" x1="18.0645" y1="52.535" x2="27.0967" y2="52.535" gradientUnits="userSpaceOnUse">
<stop stop-color="#FC4A1A"/>
<stop offset="1" stop-color="#F7B733"/>
</linearGradient>
<linearGradient id="paint1_linear_4492_11837" x1="45.1611" y1="52.535" x2="54.1934" y2="52.535" gradientUnits="userSpaceOnUse">
<stop stop-color="#FC4A1A"/>
<stop offset="1" stop-color="#F7B733"/>
</linearGradient>
<linearGradient id="paint2_linear_4492_11837" x1="4.5166" y1="34.9999" x2="70.0005" y2="34.9999" gradientUnits="userSpaceOnUse">
<stop stop-color="#FC4A1A"/>
<stop offset="1" stop-color="#F7B733"/>
</linearGradient>
<linearGradient id="paint3_linear_4492_11837" x1="45.1611" y1="24.8184" x2="63.2256" y2="24.8184" gradientUnits="userSpaceOnUse">
<stop stop-color="#FC4A1A"/>
<stop offset="1" stop-color="#F7B733"/>
</linearGradient>
<linearGradient id="paint4_linear_4492_11837" x1="45.1611" y1="35.5659" x2="51.9353" y2="35.5659" gradientUnits="userSpaceOnUse">
<stop stop-color="#FC4A1A"/>
<stop offset="1" stop-color="#F7B733"/>
</linearGradient>
<linearGradient id="paint5_linear_4492_11837" x1="0" y1="18.5962" x2="2.25806" y2="18.5962" gradientUnits="userSpaceOnUse">
<stop stop-color="#FC4A1A"/>
<stop offset="1" stop-color="#F7B733"/>
</linearGradient>
<linearGradient id="paint6_linear_4492_11837" x1="0" y1="25.3842" x2="2.25806" y2="25.3842" gradientUnits="userSpaceOnUse">
<stop stop-color="#FC4A1A"/>
<stop offset="1" stop-color="#F7B733"/>
</linearGradient>
<linearGradient id="paint7_linear_4492_11837" x1="0" y1="32.1714" x2="2.25806" y2="32.1714" gradientUnits="userSpaceOnUse">
<stop stop-color="#FC4A1A"/>
<stop offset="1" stop-color="#F7B733"/>
</linearGradient>
<clipPath id="clip0_4492_11837">
<rect width="70" height="70" fill="white"/>
</clipPath>
<clipPath id="clip1_4492_11837">
<rect width="70" height="70" fill="white"/>
</clipPath>
</defs>
</svg>
