<svg width="70" height="70" viewBox="0 0 70 70" fill="none" xmlns="http://www.w3.org/2000/svg">
<g clip-path="url(#clip0_4492_11855)">
<path d="M58.2883 45.3993C58.0095 45.3971 57.7427 45.2854 57.5455 45.0882C57.3483 44.891 57.2366 44.6242 57.2344 44.3454V23.3938C57.2344 23.1143 57.3454 22.8462 57.5431 22.6485C57.7407 22.4509 58.0088 22.3398 58.2883 22.3398C61.292 22.4214 64.1453 23.6719 66.241 25.8253C68.3366 27.9786 69.5093 30.8648 69.5093 33.8696C69.5093 36.8744 68.3366 39.7606 66.241 41.9139C64.1453 44.0673 61.292 45.3178 58.2883 45.3993ZM59.3423 24.4987V43.1979C61.6161 42.9065 63.7057 41.7964 65.2201 40.0755C66.7345 38.3546 67.5699 36.1407 67.5699 33.8483C67.5699 31.556 66.7345 29.3421 65.2201 27.6212C63.7057 25.9003 61.6161 24.7902 59.3423 24.4987Z" fill="url(#paint0_linear_4492_11855)"/>
<path d="M12.3559 45.3987C10.8154 45.4405 9.28221 45.1733 7.84678 44.6127C6.41135 44.052 5.10282 43.2095 3.99847 42.1347C2.89412 41.0599 2.01633 39.7747 1.41696 38.3551C0.817593 36.9354 0.508789 35.41 0.508789 33.869C0.508789 32.3279 0.817593 30.8026 1.41696 29.3829C2.01633 27.9632 2.89412 26.678 3.99847 25.6032C5.10282 24.5285 6.41135 23.6859 7.84678 23.1253C9.28221 22.5647 10.8154 22.2974 12.3559 22.3392C12.6354 22.3392 12.9035 22.4503 13.1011 22.6479C13.2988 22.8456 13.4098 23.1136 13.4098 23.3932V44.3448C13.4076 44.6236 13.2958 44.8904 13.0987 45.0876C12.9015 45.2847 12.6347 45.3965 12.3559 45.3987ZM11.3019 24.4981C9.02813 24.7896 6.93848 25.8996 5.42407 27.6206C3.90965 29.3415 3.07427 31.5553 3.07427 33.8477C3.07427 36.1401 3.90965 38.3539 5.42407 40.0749C6.93848 41.7958 9.02813 42.9059 11.3019 43.1973V24.4981Z" fill="url(#paint1_linear_4492_11855)"/>
<path d="M38.6704 65.799H31.9727C31.4411 65.8238 30.9099 65.7404 30.4115 65.554C29.913 65.3676 29.4575 65.082 29.0725 64.7146C28.6876 64.3471 28.3812 63.9054 28.1718 63.4161C27.9624 62.9268 27.8545 62.4001 27.8545 61.8679C27.8545 61.3358 27.9624 60.8091 28.1718 60.3198C28.3812 59.8305 28.6876 59.3888 29.0725 59.0213C29.4575 58.6539 29.913 58.3683 30.4115 58.1819C30.9099 57.9955 31.4411 57.9121 31.9727 57.9369H38.6704C39.6813 57.9839 40.6353 58.4186 41.3341 59.1507C42.033 59.8827 42.4229 60.8559 42.4229 61.8679C42.4229 62.88 42.033 63.8532 41.3341 64.5852C40.6353 65.3173 39.6813 65.752 38.6704 65.799ZM31.9727 60.0618C31.488 60.0618 31.0232 60.2543 30.6805 60.597C30.3378 60.9397 30.1452 61.4045 30.1452 61.8892C30.1452 62.3739 30.3378 62.8387 30.6805 63.1814C31.0232 63.5241 31.488 63.7166 31.9727 63.7166H38.6704C39.155 63.7166 39.6199 63.5241 39.9626 63.1814C40.3053 62.8387 40.4978 62.3739 40.4978 61.8892C40.4978 61.4045 40.3053 60.9397 39.9626 60.597C39.6199 60.2543 39.155 60.0618 38.6704 60.0618H31.9727Z" fill="url(#paint2_linear_4492_11855)"/>
<path d="M8.06321 25.3654C7.94997 25.3664 7.83755 25.3462 7.73173 25.3059C7.46733 25.2184 7.2483 25.0299 7.12248 24.7814C6.99667 24.533 6.97429 24.2449 7.06025 23.98C9.0185 18.0313 12.8042 12.8524 17.8779 9.18101C22.9516 5.50967 29.0546 3.5332 35.3173 3.5332C41.58 3.5332 47.683 5.50967 52.7567 9.18101C57.8304 12.8524 61.6161 18.0313 63.5743 23.98C63.6378 24.238 63.6014 24.5106 63.4725 24.743C63.3436 24.9754 63.1316 25.1505 62.879 25.2332C62.6265 25.316 62.352 25.3002 62.1105 25.1892C61.8691 25.0782 61.6785 24.88 61.5769 24.6344C59.764 19.0996 56.2486 14.279 51.5327 10.8612C46.8168 7.44342 41.1415 5.60312 35.3173 5.60312C29.4931 5.60312 23.8178 7.44342 19.1019 10.8612C14.3859 14.279 10.8705 19.0996 9.05767 24.6344C8.98978 24.8453 8.85715 25.0295 8.67863 25.1607C8.5001 25.2919 8.28476 25.3636 8.06321 25.3654Z" fill="url(#paint3_linear_4492_11855)"/>
<path d="M41.6792 62.2196C41.4257 62.2114 41.1837 62.1121 40.9975 61.9399C40.8113 61.7677 40.6935 61.5341 40.6656 61.2821C40.6377 61.03 40.7016 60.7763 40.8456 60.5676C40.9897 60.3588 41.2041 60.209 41.4497 60.1456C45.8441 59.1477 49.9269 57.088 53.3409 54.1467C56.7548 51.2055 59.3959 47.4723 61.0329 43.2739C61.1354 43.0135 61.3372 42.8046 61.5939 42.693C61.8505 42.5814 62.1409 42.5763 62.4013 42.6789C62.6617 42.7815 62.8706 42.9833 62.9822 43.2399C63.0938 43.4965 63.0989 43.787 62.9963 44.0473C61.2289 48.5693 58.379 52.5884 54.6964 55.7523C51.0139 58.9162 46.6112 61.1281 41.8747 62.1941C41.8105 62.2086 41.745 62.2172 41.6792 62.2196Z" fill="url(#paint4_linear_4492_11855)"/>
<path d="M35.3221 52.9381C31.4187 52.9381 27.6029 51.7806 24.3573 49.612C21.1117 47.4434 18.5821 44.361 17.0883 40.7547C15.5945 37.1484 15.2036 33.1801 15.9652 29.3516C16.7267 25.5232 18.6064 22.0066 21.3665 19.2464C24.1267 16.4863 27.6433 14.6066 31.4718 13.8451C35.3002 13.0835 39.2685 13.4744 42.8748 14.9682C46.4811 16.4619 49.5635 18.9916 51.7321 22.2372C53.9007 25.4828 55.0582 29.2985 55.0582 33.202C55.0515 38.4343 52.97 43.4503 49.2702 47.1501C45.5704 50.8499 40.5544 52.9314 35.3221 52.9381ZM35.3221 15.5397C31.8346 15.5381 28.4249 16.5704 25.524 18.5062C22.6231 20.442 20.3612 23.1944 19.0243 26.4154C17.6873 29.6365 17.3354 33.1816 18.0129 36.6027C18.6904 40.0237 20.3669 43.1671 22.8305 45.6355C25.2942 48.1039 28.4344 49.7865 31.8541 50.4706C35.2739 51.1547 38.8196 50.8095 42.0433 49.4788C45.2669 48.1481 48.0236 45.8915 49.965 42.9944C51.9064 40.0972 52.9453 36.6895 52.9503 33.202C52.9458 28.5281 51.0871 24.0469 47.7822 20.7419C44.4772 17.4369 39.996 15.5782 35.3221 15.5737V15.5397Z" fill="url(#paint5_linear_4492_11855)"/>
<path d="M24.8419 35.4885C24.428 35.4885 24.0234 35.3656 23.6793 35.1355C23.3353 34.9053 23.0673 34.5783 22.9093 34.1957C22.7513 33.8132 22.7104 33.3923 22.7918 32.9865C22.8731 32.5807 23.0731 32.2081 23.3664 31.916C23.6597 31.624 24.033 31.4255 24.4392 31.3458C24.8453 31.2661 25.266 31.3087 25.6479 31.4683C26.0298 31.6278 26.3558 31.8971 26.5845 32.2421C26.8133 32.5871 26.9345 32.9921 26.9328 33.4061C26.9305 33.9591 26.7092 34.4888 26.3174 34.8791C25.9255 35.2693 25.3949 35.4885 24.8419 35.4885Z" fill="url(#paint6_linear_4492_11855)"/>
<path d="M45.2413 35.4885C44.8274 35.4885 44.4228 35.3656 44.0788 35.1355C43.7347 34.9053 43.4667 34.5783 43.3087 34.1957C43.1507 33.8132 43.1098 33.3923 43.1912 32.9865C43.2726 32.5807 43.4725 32.2081 43.7658 31.916C44.0591 31.624 44.4324 31.4255 44.8386 31.3458C45.2448 31.2661 45.6654 31.3087 46.0473 31.4683C46.4293 31.6278 46.7552 31.8971 46.984 32.2421C47.2127 32.5871 47.3339 32.9921 47.3322 33.4061C47.3299 33.9591 47.1087 34.4888 46.7168 34.8791C46.3249 35.2693 45.7944 35.4885 45.2413 35.4885Z" fill="url(#paint7_linear_4492_11855)"/>
<path d="M35.3222 45.3571C33.7224 45.3548 32.1887 44.7183 31.0575 43.5871C29.9262 42.4558 29.2897 40.9222 29.2875 39.3223C29.2743 39.1765 29.2917 39.0296 29.3385 38.8909C29.3853 38.7522 29.4604 38.6248 29.5592 38.5167C29.6579 38.4087 29.7781 38.3224 29.9121 38.2634C30.046 38.2043 30.1908 38.1738 30.3372 38.1738C30.4835 38.1738 30.6283 38.2043 30.7623 38.2634C30.8962 38.3224 31.0164 38.4087 31.1151 38.5167C31.2139 38.6248 31.289 38.7522 31.3358 38.8909C31.3826 39.0296 31.4 39.1765 31.3869 39.3223C31.3869 40.366 31.8015 41.367 32.5395 42.105C33.2775 42.8431 34.2785 43.2577 35.3222 43.2577C36.3659 43.2577 37.3669 42.8431 38.1049 42.105C38.8429 41.367 39.2575 40.366 39.2575 39.3223C39.2575 39.0428 39.3686 38.7747 39.5662 38.5771C39.7639 38.3794 40.032 38.2684 40.3115 38.2684C40.591 38.2684 40.8591 38.3794 41.0567 38.5771C41.2544 38.7747 41.3654 39.0428 41.3654 39.3223C41.3609 40.9229 40.7225 42.4566 39.5899 43.5876C38.4573 44.7186 36.9228 45.3548 35.3222 45.3571Z" fill="url(#paint8_linear_4492_11855)"/>
<path d="M40.3105 29.6667C40.2203 29.6791 40.1288 29.6791 40.0385 29.6667C37.2051 28.7645 34.5275 27.4315 32.0999 25.7144C31.7599 25.4934 31.4369 25.2809 31.1309 25.0939C30.9373 25.6644 30.9373 26.2828 31.1309 26.8533C31.2587 27.0159 31.3359 27.2125 31.3528 27.4187C31.3696 27.6248 31.3255 27.8314 31.2258 28.0126C31.1261 28.1938 30.9753 28.3417 30.7922 28.4378C30.6091 28.534 30.4017 28.5741 30.1959 28.5532C25.6741 28.1453 22.7503 25.2894 20.4894 22.544C20.3973 22.4363 20.3273 22.3115 20.2834 22.1767C20.2396 22.042 20.2227 21.8999 20.2338 21.7586C20.2448 21.6174 20.2836 21.4796 20.3478 21.3533C20.4121 21.227 20.5006 21.1146 20.6083 21.0226C20.7161 20.9305 20.8409 20.8605 20.9756 20.8166C21.1104 20.7728 21.2524 20.7559 21.3937 20.767C21.679 20.7893 21.9438 20.924 22.1298 21.1416C24.5012 24.0144 26.5581 25.5444 28.9295 26.1478C28.9396 25.5481 29.0051 24.9506 29.125 24.3629C29.193 23.9719 29.261 23.6149 29.2865 23.3005C29.2955 23.1258 29.3486 22.9564 29.4407 22.8078C29.5329 22.6591 29.6611 22.5363 29.8135 22.4505C29.9641 22.3709 30.1318 22.3292 30.3022 22.3292C30.4725 22.3292 30.6403 22.3709 30.7909 22.4505C31.6346 22.893 32.4519 23.384 33.2388 23.9209C34.9699 25.1047 36.8048 26.1289 38.7211 26.9808V26.8873C38.3158 25.9562 38.0798 24.9604 38.0241 23.9464C38.0122 23.7318 38.0663 23.5186 38.179 23.3356C38.2917 23.1525 38.4577 23.0083 38.6547 22.9223C38.8517 22.8363 39.0703 22.8125 39.2812 22.8543C39.4921 22.8961 39.6852 23.0013 39.8345 23.156C42.3079 25.7824 47.8837 26.3093 51.734 24.2864C51.9809 24.1545 52.27 24.1261 52.5378 24.2074C52.8056 24.2887 53.0301 24.4731 53.162 24.7199C53.2938 24.9667 53.3222 25.2559 53.2409 25.5236C53.1596 25.7914 52.9753 26.016 52.7285 26.1478C50.8884 27.0689 48.8673 27.5718 46.8101 27.6202C44.7529 27.6687 42.7104 27.2617 40.829 26.4283C41.0811 27.0719 41.2717 27.7378 41.3985 28.4172C41.4322 28.5922 41.4211 28.7728 41.3661 28.9422C41.3111 29.1117 41.214 29.2644 41.084 29.3862C40.9816 29.4841 40.8599 29.5596 40.7268 29.6079C40.5936 29.6562 40.4518 29.6762 40.3105 29.6667Z" fill="url(#paint9_linear_4492_11855)"/>
</g>
<defs>
<linearGradient id="paint0_linear_4492_11855" x1="57.2344" y1="33.8696" x2="69.5093" y2="33.8696" gradientUnits="userSpaceOnUse">
<stop stop-color="#FC4A1A"/>
<stop offset="1" stop-color="#F7B733"/>
</linearGradient>
<linearGradient id="paint1_linear_4492_11855" x1="0.508789" y1="33.869" x2="13.4098" y2="33.869" gradientUnits="userSpaceOnUse">
<stop stop-color="#FC4A1A"/>
<stop offset="1" stop-color="#F7B733"/>
</linearGradient>
<linearGradient id="paint2_linear_4492_11855" x1="27.8545" y1="61.8679" x2="42.4229" y2="61.8679" gradientUnits="userSpaceOnUse">
<stop stop-color="#FC4A1A"/>
<stop offset="1" stop-color="#F7B733"/>
</linearGradient>
<linearGradient id="paint3_linear_4492_11855" x1="7.00879" y1="14.4493" x2="63.6048" y2="14.4493" gradientUnits="userSpaceOnUse">
<stop stop-color="#FC4A1A"/>
<stop offset="1" stop-color="#F7B733"/>
</linearGradient>
<linearGradient id="paint4_linear_4492_11855" x1="40.6592" y1="52.4125" x2="63.0697" y2="52.4125" gradientUnits="userSpaceOnUse">
<stop stop-color="#FC4A1A"/>
<stop offset="1" stop-color="#F7B733"/>
</linearGradient>
<linearGradient id="paint5_linear_4492_11855" x1="15.5859" y1="33.202" x2="55.0582" y2="33.202" gradientUnits="userSpaceOnUse">
<stop stop-color="#FC4A1A"/>
<stop offset="1" stop-color="#F7B733"/>
</linearGradient>
<linearGradient id="paint6_linear_4492_11855" x1="22.751" y1="33.3976" x2="26.9328" y2="33.3976" gradientUnits="userSpaceOnUse">
<stop stop-color="#FC4A1A"/>
<stop offset="1" stop-color="#F7B733"/>
</linearGradient>
<linearGradient id="paint7_linear_4492_11855" x1="43.1504" y1="33.3976" x2="47.3322" y2="33.3976" gradientUnits="userSpaceOnUse">
<stop stop-color="#FC4A1A"/>
<stop offset="1" stop-color="#F7B733"/>
</linearGradient>
<linearGradient id="paint8_linear_4492_11855" x1="29.2832" y1="41.7655" x2="41.3654" y2="41.7655" gradientUnits="userSpaceOnUse">
<stop stop-color="#FC4A1A"/>
<stop offset="1" stop-color="#F7B733"/>
</linearGradient>
<linearGradient id="paint9_linear_4492_11855" x1="20.2305" y1="25.2199" x2="53.2864" y2="25.2199" gradientUnits="userSpaceOnUse">
<stop stop-color="#FC4A1A"/>
<stop offset="1" stop-color="#F7B733"/>
</linearGradient>
<clipPath id="clip0_4492_11855">
<rect width="70" height="70" fill="white"/>
</clipPath>
</defs>
</svg>
