<svg width="40" height="40" viewBox="0 0 40 40" fill="none" xmlns="http://www.w3.org/2000/svg">
<g clip-path="url(#clip0_2231_3210)">
<circle cx="20" cy="20" r="20" fill="#FC4A1A"/>
<g clip-path="url(#clip1_2231_3210)">
<path d="M13.7366 10.9223C13.4241 10.9317 13.1497 11.0966 12.9199 11.3264L12.5366 11.709L16.6907 15.9388L17.2937 15.3358C17.6571 14.9723 17.6571 14.3723 17.2937 14.0089L14.6106 11.3264C14.3507 11.0665 14.049 10.9127 13.7366 10.9223ZM12.0935 12.1509L11.6534 12.5904C10.9334 13.3105 10.9381 14.2527 10.9381 14.6876C10.9381 16.4871 11.6575 19.5983 16.0291 23.9698C20.4006 28.3413 23.5123 29.0613 25.3119 29.0613C25.7468 29.0613 26.689 29.0661 27.4091 28.346L27.807 27.948L23.653 23.7183L23.2172 24.1547C22.9589 24.413 22.7683 24.4438 22.583 24.422C22.3977 24.4003 22.2061 24.2931 22.066 24.1846C21.3021 23.5932 20.0653 22.7466 18.6591 21.3404C17.2528 19.9341 16.4062 18.6967 15.8148 17.9328C15.7064 17.7927 15.5992 17.6036 15.5774 17.4183C15.5556 17.2329 15.5891 17.0399 15.8472 16.7817L16.2482 16.3807L12.0935 12.1509ZM25.3265 22.4329C25.0858 22.4329 24.8454 22.524 24.6637 22.7057L24.0949 23.2752L28.2495 27.5055L28.6731 27.082C28.9028 26.8523 29.0669 26.5753 29.0765 26.2629C29.086 25.9504 28.933 25.6487 28.6731 25.3889L25.99 22.7057C25.8083 22.524 25.5673 22.4329 25.3265 22.4329Z" fill="white"/>
</g>
</g>
<defs>
<clipPath id="clip0_2231_3210">
<rect width="40" height="40" fill="white"/>
</clipPath>
<clipPath id="clip1_2231_3210">
<rect width="20" height="20" fill="white" transform="translate(10 10)"/>
</clipPath>
</defs>
</svg>
