<svg width="16" height="24" viewBox="0 0 16 24" fill="none" xmlns="http://www.w3.org/2000/svg">
<path d="M0 3C0 1.34531 1.30455 0 2.90909 0H13.0909C14.6955 0 16 1.34531 16 3V21C16 22.6547 14.6955 24 13.0909 24H2.90909C1.30455 24 0 22.6547 0 21V3ZM5.81818 21C5.81818 21.4125 6.14545 21.75 6.54545 21.75H9.45455C9.85455 21.75 10.1818 21.4125 10.1818 21C10.1818 20.5875 9.85455 20.25 9.45455 20.25H6.54545C6.14545 20.25 5.81818 20.5875 5.81818 21ZM13.0909 3H2.90909V18H13.0909V3Z" fill="#FC4A1A"/>
</svg>
