<svg width="70" height="70" viewBox="0 0 70 70" fill="none" xmlns="http://www.w3.org/2000/svg">
<g clip-path="url(#clip0_3088_6146)">
<mask id="mask0_3088_6146" style="mask-type:luminance" maskUnits="userSpaceOnUse" x="0" y="0" width="240" height="70">
<path d="M240 0H0V70H240V0Z" fill="white"/>
</mask>
<g mask="url(#mask0_3088_6146)">
<path d="M67.697 3.77038C67.7804 3.60363 67.8198 3.41833 67.8114 3.23208C67.803 3.04583 67.7472 2.86481 67.6491 2.70622C67.5511 2.54763 67.4142 2.41672 67.2514 2.32593C67.0885 2.23515 66.9052 2.18749 66.7187 2.1875H3.28125C3.09481 2.18749 2.91147 2.23515 2.74863 2.32593C2.58579 2.41672 2.44886 2.54763 2.35084 2.70622C2.25283 2.86481 2.19698 3.04583 2.1886 3.23208C2.18023 3.41833 2.2196 3.60363 2.30299 3.77038L4.375 7.9144V62.0856L2.30299 66.2296C2.2196 66.3964 2.18023 66.5817 2.1886 66.7679C2.19698 66.9542 2.25283 67.1352 2.35084 67.2938C2.44886 67.4524 2.58579 67.5833 2.74863 67.6741C2.91147 67.7649 3.09481 67.8125 3.28125 67.8125H66.7187C66.9052 67.8125 67.0885 67.7649 67.2514 67.6741C67.4142 67.5833 67.5511 67.4524 67.6491 67.2938C67.7472 67.1352 67.803 66.9542 67.8114 66.7679C67.8198 66.5817 67.7804 66.3964 67.697 66.2296L65.625 62.0856V7.9144L67.697 3.77038ZM6.5625 8.75H22.9687V61.25H6.5625V8.75ZM25.1562 8.75H44.8437V61.25H25.1562V8.75ZM47.0312 8.75H63.4375V61.25H47.0312V8.75ZM64.949 4.375L63.8553 6.5625H6.14473L5.05098 4.375H64.949ZM5.05098 65.625L6.14473 63.4375H63.8553L64.949 65.625H5.05098Z" fill="black"/>
<path d="M19.6875 10.9375H9.84375C9.70012 10.9375 9.55789 10.9658 9.42519 11.0207C9.29248 11.0757 9.17191 11.1563 9.07034 11.2578C8.96878 11.3594 8.88821 11.48 8.83325 11.6127C8.77828 11.7454 8.75 11.8876 8.75 12.0312V32.8125C8.75 32.9561 8.77828 33.0984 8.83325 33.2311C8.88821 33.3638 8.96878 33.4843 9.07034 33.5859C9.17191 33.6875 9.29248 33.768 9.42519 33.823C9.55789 33.878 9.70012 33.9063 9.84375 33.9062H14.2188V31.7188H10.9375V13.125H18.5938V28.4375H20.7812V12.0312C20.7813 11.8876 20.753 11.7454 20.698 11.6127C20.643 11.48 20.5625 11.3594 20.4609 11.2578C20.3593 11.1563 20.2388 11.0757 20.1061 11.0207C19.9734 10.9658 19.8311 10.9375 19.6875 10.9375Z" fill="black"/>
<path d="M16.4062 32.8125V37.1875C16.4069 37.7675 16.6377 38.3235 17.0478 38.7336C17.4579 39.1437 18.0138 39.3743 18.5938 39.375H20.7812V37.1875H18.5938V32.8125H20.7812V30.625H18.5938C18.0138 30.6257 17.4579 30.8563 17.0478 31.2664C16.6377 31.6765 16.4069 32.2325 16.4062 32.8125Z" fill="black"/>
<path d="M18.5938 56.875H10.9375V38.2812H14.2188V36.0938H9.84375C9.70012 36.0937 9.55789 36.1219 9.42519 36.1769C9.29248 36.2319 9.17191 36.3125 9.07034 36.4141C8.96878 36.5157 8.88821 36.6362 8.83325 36.7689C8.77828 36.9016 8.75 37.0439 8.75 37.1875V57.9688C8.75 58.1124 8.77828 58.2545 8.83325 58.3872C8.88821 58.5199 8.96878 58.6405 9.07034 58.7421C9.17191 58.8436 9.29248 58.9242 9.42519 58.9791C9.55789 59.0341 9.70012 59.0625 9.84375 59.0625H19.6875C19.8311 59.0625 19.9734 59.0341 20.1061 58.9791C20.2388 58.9242 20.3593 58.8436 20.4609 58.7421C20.5625 58.6405 20.643 58.5199 20.698 58.3872C20.753 58.2545 20.7813 58.1124 20.7812 57.9688V41.5625H18.5938V56.875Z" fill="black"/>
<path d="M60.1562 10.9375H50.3125C50.1689 10.9375 50.0266 10.9658 49.8939 11.0207C49.7612 11.0757 49.6407 11.1563 49.5391 11.2578C49.4375 11.3594 49.3569 11.48 49.3019 11.6127C49.2469 11.7454 49.2187 11.8876 49.2188 12.0312V28.4375H51.4062V13.125H59.0625V31.7188H55.7812V33.9062H60.1562C60.2999 33.9063 60.442 33.878 60.5747 33.823C60.7074 33.768 60.828 33.6875 60.9296 33.5859C61.0311 33.4843 61.1117 33.3638 61.1666 33.2311C61.2216 33.0984 61.25 32.9561 61.25 32.8125V12.0312C61.25 11.8876 61.2216 11.7454 61.1666 11.6127C61.1117 11.48 61.0311 11.3594 60.9296 11.2578C60.828 11.1563 60.7074 11.0757 60.5747 11.0207C60.442 10.9658 60.2999 10.9375 60.1562 10.9375Z" fill="black"/>
<path d="M53.5938 37.1875V32.8125C53.5931 32.2325 53.3624 31.6765 52.9523 31.2664C52.5422 30.8563 51.9862 30.6257 51.4062 30.625H49.2188V32.8125H51.4062V37.1875H49.2188V39.375H51.4062C51.9862 39.3743 52.5422 39.1437 52.9523 38.7336C53.3624 38.3235 53.5931 37.7675 53.5938 37.1875Z" fill="black"/>
<path d="M60.1562 36.0938H55.7812V38.2812H59.0625V56.875H51.4062V41.5625H49.2188V57.9688C49.2187 58.1124 49.2469 58.2545 49.3019 58.3872C49.3569 58.5199 49.4375 58.6405 49.5391 58.7421C49.6407 58.8436 49.7612 58.9242 49.8939 58.9791C50.0266 59.0341 50.1689 59.0625 50.3125 59.0625H60.1562C60.2999 59.0625 60.442 59.0341 60.5747 58.9791C60.7074 58.9242 60.828 58.8436 60.9296 58.7421C61.0311 58.6405 61.1117 58.5199 61.1666 58.3872C61.2216 58.2545 61.25 58.1124 61.25 57.9688V37.1875C61.25 37.0439 61.2216 36.9016 61.1666 36.7689C61.1117 36.6362 61.0311 36.5157 60.9296 36.4141C60.828 36.3125 60.7074 36.2319 60.5747 36.1769C60.442 36.1219 60.2999 36.0937 60.1562 36.0938Z" fill="black"/>
<path d="M41.5625 10.9375H28.4375C28.2939 10.9375 28.1516 10.9658 28.0189 11.0207C27.8862 11.0757 27.7657 11.1563 27.6641 11.2578C27.5625 11.3594 27.482 11.48 27.427 11.6127C27.372 11.7454 27.3437 11.8876 27.3438 12.0312V57.9688C27.3437 58.1124 27.372 58.2546 27.427 58.3873C27.482 58.52 27.5625 58.6406 27.6641 58.7422C27.7657 58.8437 27.8862 58.9243 28.0189 58.9792C28.1516 59.0342 28.2939 59.0625 28.4375 59.0625H41.5625C41.7061 59.0625 41.8483 59.0342 41.981 58.9792C42.1137 58.9243 42.2342 58.8437 42.3358 58.7422C42.4374 58.6406 42.518 58.52 42.573 58.3873C42.628 58.2546 42.6563 58.1124 42.6562 57.9688V12.0312C42.6563 11.8876 42.628 11.7454 42.573 11.6127C42.518 11.48 42.4374 11.3594 42.3358 11.2578C42.2342 11.1563 42.1137 11.0757 41.981 11.0207C41.8483 10.9658 41.7061 10.9375 41.5625 10.9375ZM40.4688 56.875H29.5312V13.125H40.4688V56.875Z" fill="black"/>
</g>
</g>
<defs>
<clipPath id="clip0_3088_6146">
<rect width="70" height="70" fill="white"/>
</clipPath>
</defs>
</svg>
