<svg width="60" height="60" viewBox="0 0 60 60" fill="none" xmlns="http://www.w3.org/2000/svg">
<circle cx="30" cy="30" r="30" fill="url(#paint0_linear_2298_11413)"/>
<g clip-path="url(#clip0_2298_11413)">
<path d="M39.1406 37.0312H37.8516V34.8047C37.8516 34.7114 37.8145 34.622 37.7486 34.5561C37.6827 34.4902 37.5932 34.4531 37.5 34.4531C37.4068 34.4531 37.3173 34.4902 37.2514 34.5561C37.1855 34.622 37.1484 34.7114 37.1484 34.8047V37.0312C37.1484 37.2177 37.2225 37.3966 37.3544 37.5284C37.4862 37.6603 37.6651 37.7344 37.8516 37.7344H39.1406C39.2339 37.7344 39.3233 37.6973 39.3892 37.6314C39.4551 37.5655 39.4922 37.4761 39.4922 37.3828C39.4922 37.2896 39.4551 37.2002 39.3892 37.1342C39.3233 37.0683 39.2339 37.0313 39.1406 37.0312Z" fill="white"/>
<path d="M17.0463 42.0351C19.2588 44.3672 22.8494 44.8683 27.558 44.8828C29.1739 44.9133 30.7899 44.8263 32.3932 44.6226C32.4615 44.6117 32.5251 44.5809 32.5761 44.534C32.6271 44.4872 32.6632 44.4264 32.6799 44.3593C32.6967 44.2921 32.6933 44.2215 32.6702 44.1562C32.6472 44.091 32.6054 44.0339 32.5502 43.9922C31.145 42.9611 30.1048 41.5092 29.5806 39.847C29.0564 38.1848 29.0754 36.3988 29.6349 34.7481C30.1944 33.0975 31.2653 31.668 32.6922 30.6671C34.1191 29.6663 35.8278 29.1461 37.5703 29.182C37.634 29.1844 37.6972 29.1694 37.753 29.1386C37.8089 29.1078 37.8553 29.0624 37.8873 29.0073C37.9193 28.9521 37.9358 28.8893 37.9348 28.8256C37.9339 28.7618 37.9156 28.6995 37.882 28.6453C36.1992 25.9219 33.9281 23.6789 32.5711 22.4625C32.7001 22.27 32.7851 22.0514 32.82 21.8223C32.8549 21.5932 32.8389 21.3592 32.7731 21.137C32.7074 20.9148 32.5934 20.7098 32.4394 20.5366C32.2853 20.3635 32.095 20.2264 31.882 20.1351C32.325 19.2375 32.8219 18.1969 33.0305 17.6601C33.1727 17.3141 33.2028 16.9321 33.1166 16.568C33.0304 16.2039 32.8323 15.876 32.55 15.6305C32.2687 15.3885 31.9164 15.2444 31.5461 15.2198C31.1758 15.1953 30.8076 15.2917 30.4969 15.4945C30.2018 15.6947 29.8606 15.8165 29.5055 15.8484C29.0226 15.8484 28.9207 15.7587 28.8164 15.5672C28.4388 14.8737 26.678 14.8727 26.3039 15.5672C26.2012 15.758 26.1 15.8484 25.6148 15.8484C25.2597 15.8165 24.9185 15.6947 24.6234 15.4945C24.3131 15.292 23.9455 15.1955 23.5758 15.2196C23.206 15.2437 22.854 15.387 22.5726 15.6281C22.2901 15.8735 22.0918 16.2014 22.0056 16.5656C21.9194 16.9298 21.9497 17.3118 22.0922 17.6578C22.2726 18.1336 22.6851 19.0078 23.0812 19.8281L20.7867 18.7875C20.4818 18.6492 20.1345 18.6377 19.8211 18.7555C19.5077 18.8733 19.2539 19.1107 19.1156 19.4156C18.9773 19.7205 18.9658 20.0679 19.0836 20.3813C19.2014 20.6946 19.4388 20.9484 19.7437 21.0867L21.1664 21.7336L18.7969 22.5914C18.6298 22.6498 18.476 22.7407 18.3444 22.8589C18.2127 22.977 18.1058 23.1202 18.0298 23.2799C17.9538 23.4397 17.9102 23.613 17.9016 23.7897C17.893 23.9664 17.9195 24.1431 17.9797 24.3095C18.0398 24.4759 18.1323 24.6287 18.2519 24.7591C18.3714 24.8896 18.5156 24.995 18.6762 25.0693C18.8368 25.1436 19.0105 25.1853 19.1873 25.1921C19.3641 25.1988 19.5405 25.1704 19.7062 25.1086L19.9969 25.0031C17.7119 27.5555 15.2109 31.1906 15.0213 35.0344C14.869 38.1469 15.5323 40.4367 17.0463 42.0351ZM27.2901 32.0273H27.8306C28.2245 32.0279 28.606 32.1647 28.9104 32.4147C29.2148 32.6646 29.4233 33.0122 29.5005 33.3984C29.2177 33.9432 28.9923 34.5159 28.8281 35.1073C28.5611 35.3007 28.2434 35.4121 27.914 35.4279V36.1617C27.914 36.255 27.877 36.3444 27.8111 36.4103C27.7451 36.4762 27.6557 36.5133 27.5625 36.5133C27.4692 36.5133 27.3798 36.4762 27.3139 36.4103C27.248 36.3444 27.2109 36.255 27.2109 36.1617V35.4321H27.0218C26.642 35.4317 26.2778 35.2806 26.0092 35.012C25.7407 34.7434 25.5897 34.3792 25.5893 33.9994C25.5893 33.9061 25.6263 33.8167 25.6923 33.7508C25.7582 33.6848 25.8476 33.6478 25.9408 33.6478C26.0341 33.6478 26.1235 33.6848 26.1894 33.7508C26.2554 33.8167 26.2924 33.9061 26.2924 33.9994C26.2926 34.1928 26.3695 34.3782 26.5062 34.515C26.643 34.6518 26.8284 34.7287 27.0218 34.729H27.8327C28.0979 34.729 28.3522 34.6236 28.5397 34.4361C28.7272 34.2486 28.8326 33.9943 28.8326 33.7291C28.8326 33.464 28.7272 33.2096 28.5397 33.0221C28.3522 32.8346 28.0979 32.7293 27.8327 32.7293H27.2901C26.8456 32.7297 26.4185 32.5561 26.1003 32.2457C25.7821 31.9352 25.598 31.5126 25.5874 31.0682C25.5767 30.6237 25.7404 30.1928 26.0435 29.8675C26.3465 29.5422 26.7647 29.3484 27.2088 29.3276V28.5937C27.2088 28.5005 27.2459 28.4111 27.3118 28.3452C27.3777 28.2792 27.4671 28.2422 27.5604 28.2422C27.6536 28.2422 27.743 28.2792 27.809 28.3452C27.8749 28.4111 27.9119 28.5005 27.9119 28.5937V29.3234H28.1015C28.4814 29.3238 28.8455 29.4749 29.1141 29.7435C29.3826 30.0121 29.5337 30.3763 29.534 30.7561C29.534 30.8493 29.497 30.9387 29.4311 31.0047C29.3651 31.0706 29.2757 31.1076 29.1825 31.1076C29.0892 31.1076 28.9998 31.0706 28.9339 31.0047C28.868 30.9387 28.8309 30.8493 28.8309 30.7561C28.8307 30.5627 28.7538 30.3773 28.617 30.2405C28.4803 30.1038 28.2949 30.0268 28.1015 30.0265H27.2906C27.0254 30.0265 26.7711 30.1318 26.5836 30.3193C26.3961 30.5068 26.2908 30.7611 26.2908 31.0263C26.2908 31.2915 26.3961 31.5458 26.5836 31.7333C26.7711 31.9208 27.0254 32.0262 27.2906 32.0262L27.2901 32.0273ZM23.0557 21.2461C23.1311 21.0638 23.2659 20.9123 23.4382 20.8162C23.6105 20.72 23.8102 20.6849 24.0049 20.7164C26.3611 21.082 28.7596 21.082 31.1158 20.7164C31.3106 20.685 31.5102 20.7202 31.6825 20.8163C31.8548 20.9124 31.9896 21.0638 32.0651 21.2461C32.1139 21.3652 32.1363 21.4935 32.1307 21.6221C32.1251 21.7507 32.0916 21.8765 32.0325 21.9909C31.9734 22.1052 31.8902 22.2054 31.7886 22.2844C31.687 22.3634 31.5694 22.4194 31.444 22.4484C28.8852 23.0086 26.2355 23.0086 23.6768 22.4484C23.5511 22.4194 23.4332 22.3634 23.3314 22.2843C23.2295 22.2051 23.1461 22.1047 23.087 21.99C23.0279 21.8754 22.9945 21.7492 22.9891 21.6203C22.9837 21.4915 23.0064 21.3629 23.0557 21.2437V21.2461ZM20.0346 20.4492C19.9664 20.4197 19.9047 20.377 19.8532 20.3234C19.8017 20.2698 19.7614 20.2065 19.7346 20.1372C19.7078 20.0679 19.6951 19.9939 19.6972 19.9197C19.6993 19.8454 19.7162 19.7723 19.7468 19.7046C19.7775 19.6369 19.8213 19.576 19.8758 19.5254C19.9302 19.4748 19.9942 19.4356 20.0639 19.41C20.1337 19.3844 20.2079 19.373 20.2821 19.3764C20.3563 19.3797 20.4292 19.3979 20.4963 19.4297L22.7627 20.4562C22.5211 20.6886 22.3608 20.9927 22.3057 21.3234L22.1135 21.3914L20.0346 20.4492ZM19.4674 24.45C19.3093 24.5054 19.1358 24.4961 18.9845 24.4242C18.8332 24.3523 18.7164 24.2236 18.6596 24.066C18.6027 23.9084 18.6104 23.7348 18.6809 23.5829C18.7515 23.4309 18.8791 23.313 19.0362 23.2547L22.3549 22.0523C22.3964 22.1959 22.4605 22.332 22.5448 22.4555C22.1182 22.8398 21.6096 23.3156 21.0612 23.8711L19.4674 24.45Z" fill="white"/>
<path d="M37.5 30C36.0166 30 34.5666 30.4399 33.3332 31.264C32.0999 32.0881 31.1386 33.2594 30.5709 34.6299C30.0032 36.0003 29.8547 37.5083 30.1441 38.9632C30.4335 40.418 31.1478 41.7544 32.1967 42.8033C33.2456 43.8522 34.582 44.5665 36.0368 44.8559C37.4917 45.1453 38.9997 44.9968 40.3701 44.4291C41.7406 43.8614 42.9119 42.9001 43.736 41.6668C44.5601 40.4334 45 38.9834 45 37.5C44.9974 35.5117 44.2064 33.6055 42.8004 32.1996C41.3945 30.7936 39.4883 30.0026 37.5 30ZM37.5 42.3047C36.5497 42.3047 35.6208 42.0229 34.8307 41.495C34.0405 40.967 33.4247 40.2166 33.0611 39.3387C32.6974 38.4607 32.6022 37.4947 32.7876 36.5627C32.973 35.6306 33.4306 34.7745 34.1026 34.1026C34.7745 33.4306 35.6306 32.973 36.5627 32.7876C37.4947 32.6022 38.4607 32.6974 39.3387 33.061C40.2166 33.4247 40.967 34.0405 41.495 34.8307C42.0229 35.6208 42.3047 36.5497 42.3047 37.5C42.303 38.7737 41.7962 39.9948 40.8955 40.8955C39.9948 41.7962 38.7738 42.303 37.5 42.3047Z" fill="white"/>
</g>
<defs>
<linearGradient id="paint0_linear_2298_11413" x1="0" y1="30" x2="60" y2="30" gradientUnits="userSpaceOnUse">
<stop stop-color="#FC4A1A"/>
<stop offset="1" stop-color="#F7B733"/>
</linearGradient>
<clipPath id="clip0_2298_11413">
<rect width="30" height="30" fill="white" transform="translate(15 15)"/>
</clipPath>
</defs>
</svg>
