<svg width="60" height="60" viewBox="0 0 60 60" fill="none" xmlns="http://www.w3.org/2000/svg">
<circle cx="30" cy="30" r="30" fill="url(#paint0_linear_2298_11406)"/>
<g clip-path="url(#clip0_2298_11406)">
<path d="M44.0625 38.9062V32.3438L39.8438 26.25H35.625V32.3438H34.6875V15.4688H15.9375V38.9062H15V40.7812H17.8125C17.8125 38.1966 19.9153 36.0938 22.5 36.0938C25.0847 36.0938 27.1875 38.1966 27.1875 40.7812H33.75C33.75 38.1966 35.8528 36.0938 38.4375 36.0938C41.0222 36.0938 43.125 38.1966 43.125 40.7812H45V38.9062H44.0625ZM19.6875 22.5553L24.8438 25.1334V31.1719L19.6875 28.5938V22.5553ZM29.0625 26.25V23.4928L30.9375 22.5553V28.5938L25.7812 31.1719V25.1334L27.1875 24.4303V27.1875L29.0625 26.25ZM25.3125 19.2188L30.4134 21.7692L28.5384 22.7067L23.4375 20.1562L25.3125 19.2188ZM26.6634 23.6442L25.3125 24.3197L20.2116 21.7692L21.5625 21.0938L26.6634 23.6442ZM38.9062 34.6875H37.0312V33.75H38.9062V34.6875Z" fill="white"/>
<path d="M22.5 37.0312C20.4291 37.0312 18.75 38.7103 18.75 40.7812C18.75 42.8522 20.4291 44.5312 22.5 44.5312C24.5709 44.5312 26.25 42.8522 26.25 40.7812C26.25 38.7103 24.5709 37.0312 22.5 37.0312ZM22.5 42.1875C21.7247 42.1875 21.0938 41.557 21.0938 40.7812C21.0938 40.0055 21.7247 39.375 22.5 39.375C23.2753 39.375 23.9062 40.0055 23.9062 40.7812C23.9062 41.557 23.2753 42.1875 22.5 42.1875Z" fill="white"/>
<path d="M38.4375 37.0312C36.3666 37.0312 34.6875 38.7103 34.6875 40.7812C34.6875 42.8522 36.3666 44.5312 38.4375 44.5312C40.5084 44.5312 42.1875 42.8522 42.1875 40.7812C42.1875 38.7103 40.5084 37.0312 38.4375 37.0312ZM38.4375 42.1875C37.6622 42.1875 37.0312 41.557 37.0312 40.7812C37.0312 40.0055 37.6622 39.375 38.4375 39.375C39.2128 39.375 39.8438 40.0055 39.8438 40.7812C39.8438 41.557 39.2128 42.1875 38.4375 42.1875Z" fill="white"/>
</g>
<defs>
<linearGradient id="paint0_linear_2298_11406" x1="0" y1="30" x2="60" y2="30" gradientUnits="userSpaceOnUse">
<stop stop-color="#FC4A1A"/>
<stop offset="1" stop-color="#F7B733"/>
</linearGradient>
<clipPath id="clip0_2298_11406">
<rect width="30" height="30" fill="white" transform="translate(15 15)"/>
</clipPath>
</defs>
</svg>
