<svg width="60" height="60" viewBox="0 0 60 60" fill="none" xmlns="http://www.w3.org/2000/svg">
<circle cx="30" cy="30" r="30" fill="url(#paint0_linear_2298_11397)"/>
<g clip-path="url(#clip0_2298_11397)">
<path d="M43.914 19.7905L42.2524 16.4545C41.9485 15.8445 41.0771 15.8505 40.7802 16.462L39.1606 19.798C39.1063 19.9096 39.0781 20.0321 39.0781 20.1562V30.7656H44V20.1562C44 20.0293 43.9706 19.9041 43.914 19.7905Z" fill="white"/>
<path d="M39.0781 35.7422C39.0781 36.1952 39.4454 36.5625 39.8984 36.5625H43.1797C43.6327 36.5625 44 36.1952 44 35.7422V32.4062H39.0781V35.7422Z" fill="white"/>
<path d="M21.7742 38.9688C22.8851 40.431 22.9142 42.4957 21.7383 44H37.3549C39.939 44 41.5185 41.1566 40.1781 38.9688H21.7742Z" fill="white"/>
<path d="M20.9766 22.9084V32.3242H26.9255L20.9766 22.9084Z" fill="white"/>
<path d="M18.4847 38.973C18.1655 38.973 17.8752 38.7878 17.7408 38.4984C17.4878 37.9541 17.8896 37.3281 18.4883 37.3281H37.3828V16.8203C37.3828 16.3673 37.0155 16 36.5625 16H16.8203C16.3673 16 16 16.3673 16 16.8203C16.0004 41.8746 15.9992 40.4967 16.0011 41.6184C16.0821 42.9182 17.1648 43.9511 18.4847 43.9511C19.8572 43.9511 20.9738 42.8346 20.9738 41.4621C20.9738 40.0896 19.8572 38.973 18.4847 38.973ZM23.9844 19.1992H33.2266C33.6796 19.1992 34.0469 19.5665 34.0469 20.0195V25.0508C34.0469 25.5038 33.6796 25.8711 33.2266 25.8711H30.7656V27.457H33.2266C33.6796 27.457 34.0469 27.8243 34.0469 28.2773V33.1992C34.0469 33.6523 33.6796 34.0195 33.2266 34.0195H31.6406C31.1876 34.0195 30.8203 33.6523 30.8203 33.1992C30.8203 32.7462 31.1876 32.3789 31.6406 32.3789H32.4063V29.0977H29.9453C29.4923 29.0977 29.125 28.7304 29.125 28.2773V25.0508C29.125 24.5977 29.4923 24.2305 29.9453 24.2305H32.4063V20.8398H27.4844V24.4492C27.4844 24.9023 27.1171 25.2695 26.6641 25.2695C26.211 25.2695 25.8438 24.9023 25.8438 24.4492V20.8398H23.9844C23.5314 20.8398 23.1641 20.4726 23.1641 20.0195C23.1641 19.5665 23.5314 19.1992 23.9844 19.1992ZM19.3359 20.0742C19.3359 19.2559 20.4115 18.9424 20.8497 19.6361L29.1076 32.7064C29.4521 33.2518 29.0593 33.9648 28.4141 33.9648H20.1563C19.7032 33.9648 19.3359 33.5976 19.3359 33.1445V20.0742Z" fill="white"/>
</g>
<defs>
<linearGradient id="paint0_linear_2298_11397" x1="0" y1="30" x2="60" y2="30" gradientUnits="userSpaceOnUse">
<stop stop-color="#FC4A1A"/>
<stop offset="1" stop-color="#F7B733"/>
</linearGradient>
<clipPath id="clip0_2298_11397">
<rect width="28" height="28" fill="white" transform="translate(16 16)"/>
</clipPath>
</defs>
</svg>
